<svg width="541" height="541" viewBox="0 0 541 541" fill="none" xmlns="http://www.w3.org/2000/svg">
<g clip-path="url(#clip0_5325_168)">
<mask id="mask0_5325_168" style="mask-type:luminance" maskUnits="userSpaceOnUse" x="0" y="0" width="541" height="541">
<path d="M541 0H0V541H541V0Z" fill="white"/>
</mask>
<g mask="url(#mask0_5325_168)">
<mask id="mask1_5325_168" style="mask-type:luminance" maskUnits="userSpaceOnUse" x="33" y="16" width="487" height="500">
<path d="M33.0611 16.0296H519.46V515.954H33.0611V16.0296Z" fill="white"/>
</mask>
<g mask="url(#mask1_5325_168)">
<path d="M35.1097 348.415L33.4623 347.948C47.6842 297.833 70.8471 224.861 100.431 161.813C136.5 84.9198 172.141 44.3649 206.362 41.2751L206.517 42.9805C188.548 44.603 169.867 57.124 150.993 80.1964C134.838 99.944 118.349 127.649 101.982 162.541C72.4468 225.484 49.3147 298.362 35.1097 348.415Z" fill="#202F4B"/>
<path d="M112.475 164.697C104.265 164.587 96.0025 162.057 89.6051 157.315C82.0957 151.75 79.2386 144.684 76.4755 137.851C73.7222 131.041 69.9532 121.719 73.186 111.24C76.948 99.0435 87.8719 92.8865 92.3937 90.8061L93.0663 92.267C88.7406 94.2574 78.2934 100.137 74.7226 111.714C71.6585 121.646 75.156 130.295 77.9656 137.245C80.7699 144.18 83.4176 150.727 90.563 156.023C100.859 163.654 116.2 165.308 127.87 160.044C136.059 156.35 144.502 148.578 144.902 139.538C145.087 135.374 143.608 132.096 142.178 128.925C140.447 125.09 138.814 121.468 140.778 117.147C141.955 114.558 144.8 110.993 151.668 108.711C155.901 107.305 158.854 107.755 161.98 108.232C164.222 108.573 166.541 108.927 169.536 108.597C179.204 107.532 187.279 100.223 190.993 93.4523C193.471 88.9355 193.745 85.0607 193.988 81.6423C194.274 77.6038 194.521 74.1159 198.207 71.0858C200.995 68.7945 203.61 68.5844 206.919 68.3191C208.963 68.1549 211.28 67.9688 214.224 67.2882C225.001 64.7955 235.736 57.597 240.33 49.7823C242.213 46.5791 242.825 43.5575 242.1 41.0443C240.702 36.197 234.502 33.4429 228.504 30.7783C214.279 24.4584 200.256 25.3633 190.996 27.2354L190.677 25.659C200.166 23.7404 214.545 22.8163 229.158 29.3088C235.491 32.1227 242.041 35.0318 243.646 40.5993C244.496 43.5465 243.829 47.0042 241.716 50.5971C236.916 58.7627 225.76 66.2706 214.586 68.8552C211.527 69.5627 209.148 69.754 207.048 69.9224C203.783 70.1844 201.627 70.3576 199.229 72.3285C196.076 74.9195 195.862 77.9364 195.592 81.7562C195.338 85.3387 195.05 89.4002 192.403 94.2258C188.489 101.362 179.954 109.067 169.711 110.196C166.508 110.549 164.083 110.179 161.737 109.821C158.681 109.357 156.04 108.954 152.175 110.238C145.857 112.337 143.287 115.515 142.243 117.812C140.579 121.471 141.999 124.619 143.644 128.264C145.082 131.451 146.711 135.062 146.509 139.609C146.048 149.997 136.537 157.899 128.532 161.51C123.606 163.732 118.052 164.772 112.475 164.697Z" fill="#202F4B"/>
<path d="M253.527 499.022L253.16 497.35C288.677 489.55 341.315 474.143 390.384 445.037C423.407 425.452 450.231 402.256 470.109 376.09L471.473 377.127C451.46 403.469 424.472 426.812 391.258 446.509C341.993 475.732 289.167 491.196 253.527 499.022Z" fill="#202F4B"/>
<path d="M425.685 464.423C417.042 463.866 403.014 461.331 392.868 449.707C380.214 435.209 382.474 417.205 383.971 405.291C385.321 394.54 387.001 381.16 396.756 374.78C402.84 370.8 408.615 371.699 414.199 372.567C419.648 373.415 424.793 374.216 430.069 370.543C434.15 367.703 435.354 364.196 436.878 359.757C438.592 354.769 440.724 348.56 447.69 340.977C451.224 337.13 455.622 332.342 462.891 329.871C467.328 328.363 469.882 328.714 473.749 329.246C476.698 329.652 480.366 330.156 486.34 330.067C491.273 329.993 495.378 329.537 498.676 329.172C505.38 328.428 509.809 327.937 513.622 331.396C515.954 333.511 516.854 336.025 517.337 337.377C519.546 343.545 517.415 348.904 515.16 354.578C514.47 356.314 513.756 358.11 513.148 359.975C510.334 368.602 511.192 374.24 512.022 379.692C512.888 385.382 513.705 390.757 510.03 398.551C508.762 401.238 505.397 408.376 497.93 413.164C490.468 417.949 483.409 417.62 477.181 417.33C471.577 417.069 467.15 416.863 463.992 420.428C460.483 424.39 460.266 426.753 458.849 442.13L458.561 445.259C458.199 449.149 457.169 454.157 452.368 458.386C446.109 463.899 437.884 464.594 431.417 464.583C430.048 464.58 428.071 464.577 425.685 464.423ZM408.554 373.479C404.939 373.246 401.366 373.687 397.636 376.126C388.505 382.099 386.944 394.527 385.567 405.491L385.567 405.492C384.106 417.121 381.9 434.694 394.08 448.649C406.547 462.933 425.268 462.964 431.42 462.974C437.603 462.985 445.45 462.336 451.304 457.18C454.719 454.172 456.463 450.449 456.959 445.11L457.248 441.982C458.673 426.506 458.93 423.718 462.789 419.362C466.457 415.221 471.461 415.455 477.256 415.724C483.244 416.003 490.031 416.318 497.062 411.81C504.139 407.272 507.361 400.438 508.574 397.865C512.041 390.515 511.295 385.611 510.431 379.934C509.614 374.558 508.687 368.466 511.619 359.476C512.243 357.563 512.966 355.744 513.666 353.984C515.898 348.367 517.827 343.516 515.823 337.918C515.356 336.614 514.575 334.432 512.542 332.588C509.264 329.615 505.345 330.05 498.853 330.77C495.52 331.14 491.374 331.6 486.364 331.675C480.268 331.768 476.532 331.253 473.53 330.84C469.761 330.322 467.486 330.008 463.409 331.393C456.53 333.732 452.285 338.353 448.874 342.065C442.135 349.4 440.064 355.432 438.4 360.279C436.844 364.81 435.5 368.723 430.988 371.863C425.182 375.904 419.473 375.016 413.952 374.157C412.127 373.873 410.335 373.594 408.554 373.479Z" fill="#202F4B"/>
<path d="M342.265 457.257C344.367 449.655 346.86 440.641 354.228 437.223C363.321 433.004 369.719 442.002 378.414 437.659C385.476 434.132 383.322 427.164 394.145 418.361C397.2 415.876 400.685 413.107 405.868 412.149C411.495 411.109 412.454 413.436 422.37 414.731C432.887 416.104 437.986 414.293 441.294 418.307C442.642 419.943 442.997 421.704 443.198 422.699C444.364 428.484 440.586 432.599 437.914 437.99C431.876 450.174 438.257 455.224 431.72 465.082C430.543 466.857 427.49 471.461 421.827 474.026C410.931 478.961 402.638 470.8 396.762 475.759C393.51 478.504 393.223 480.383 390.123 493.189C389.345 496.405 387.939 499.369 384.594 501.547C379.574 504.817 373.652 504.32 369.427 503.696C364.843 503.019 351.453 501.042 343.915 489.352C336.548 477.928 340.021 465.371 342.265 457.257Z" fill="white"/>
<path d="M375.096 504.805C373.062 504.825 371.1 504.611 369.331 504.35C364.812 503.683 351.06 501.652 343.359 489.71C335.833 478.038 339.32 465.426 341.627 457.081L341.628 457.08C343.711 449.546 346.304 440.17 353.95 436.622C358.727 434.407 362.762 435.651 366.664 436.855C370.441 438.02 374.008 439.121 378.119 437.067C381.296 435.48 382.513 433.118 384.053 430.128C385.796 426.746 387.964 422.536 393.728 417.848C396.652 415.469 400.292 412.508 405.747 411.499C409.083 410.882 410.874 411.399 413.584 412.184C415.64 412.779 418.198 413.519 422.456 414.075C425.973 414.534 428.943 414.636 431.328 414.718C436.203 414.885 439.423 414.996 441.804 417.886C443.258 419.65 443.64 421.548 443.846 422.568C444.785 427.222 442.703 430.831 440.498 434.652C439.827 435.816 439.133 437.021 438.507 438.283C435.615 444.118 435.64 448.213 435.664 452.174C435.69 456.33 435.713 460.256 432.272 465.446C431.086 467.234 427.937 471.984 422.099 474.628C416.263 477.273 411.255 476.302 406.836 475.446C402.894 474.682 399.778 474.078 397.189 476.264C394.298 478.704 393.898 480.361 391.297 491.144L390.766 493.344C390.101 496.092 388.839 499.571 384.955 502.101C381.836 504.132 378.374 504.773 375.096 504.805ZM342.902 457.433L342.902 457.434C340.657 465.551 337.266 477.819 344.471 488.994C351.847 500.431 365.152 502.396 369.524 503.042C373.913 503.69 379.551 504.042 384.234 500.992C386.96 499.216 388.578 496.762 389.48 493.032L390.011 490.834C392.64 479.936 393.114 477.973 396.336 475.253C399.41 472.66 402.968 473.349 407.088 474.147C411.313 474.966 416.101 475.894 421.554 473.423C427.045 470.936 430.041 466.417 431.169 464.716C434.389 459.861 434.367 456.302 434.341 452.182C434.318 448.259 434.29 443.812 437.322 437.696C437.966 436.396 438.671 435.174 439.353 433.992C441.519 430.237 443.39 426.994 442.55 422.829C442.354 421.859 442.027 420.236 440.783 418.727C438.782 416.298 435.959 416.201 431.283 416.04C428.869 415.957 425.865 415.854 422.284 415.387C417.926 414.818 415.315 414.062 413.217 413.454C410.597 412.697 409.017 412.239 405.988 412.799C400.865 413.747 397.37 416.589 394.562 418.873C389.013 423.387 386.915 427.46 385.229 430.734C383.643 433.812 382.274 436.471 378.709 438.25C374.124 440.541 370.134 439.309 366.275 438.119C362.442 436.936 358.822 435.82 354.507 437.822C347.416 441.111 345.018 449.782 342.902 457.433Z" fill="#202F4B"/>
<path d="M239.065 510.553L238.943 508.845C265.037 506.981 304.106 501.481 342.054 485.859C367.585 475.352 389.076 461.633 405.933 445.083L407.133 446.305C390.118 463.01 368.442 476.851 342.707 487.442C304.548 503.151 265.284 508.681 239.065 510.553Z" fill="#202F4B"/>
</g>
<mask id="mask2_5325_168" style="mask-type:luminance" maskUnits="userSpaceOnUse" x="17" y="54" width="458" height="468">
<path d="M17.5324 54.1H474.878V521.965H17.5324V54.1Z" fill="white"/>
</mask>
<g mask="url(#mask2_5325_168)">
<path d="M185.968 193.494C177.98 187.943 169.569 187.054 163.85 186.516C153.767 185.569 140.879 186.896 122.242 196.37C91.582 211.956 73.1412 235.469 68.0617 242.171C47.2069 269.685 1.69878 329.724 27.1278 375.65C40.5329 399.861 69.841 413.269 95.4397 413.151C140.416 412.944 170.688 370.996 180.949 343.843C186.897 328.106 181.827 328.707 190.986 294.386C199.764 261.498 206.552 252.96 204.635 233C203.934 225.704 201.904 204.569 185.968 193.494Z" fill="#5D8A9B"/>
<path d="M101.691 413.896C99.6165 414.087 97.5351 414.188 95.4448 414.198C82.3222 414.258 68.3945 410.797 56.2275 404.452C43.0299 397.569 32.6506 387.785 26.2123 376.157C15.1049 356.098 16.1376 331.005 29.2822 301.579C40.1362 277.28 57.095 254.906 67.2272 241.539C75.6902 230.374 94.029 209.537 121.768 195.436C142.493 184.901 155.767 184.704 163.948 185.474C169.275 185.975 178.189 186.813 186.566 192.634C202.899 203.985 204.99 225.748 205.677 232.9C206.996 246.628 204.228 255.144 199.64 269.253C197.496 275.849 194.827 284.059 191.998 294.657C187.131 312.893 186.295 321.274 185.685 327.394C185.143 332.823 184.751 336.747 181.929 344.213C175.863 360.265 164.652 377.141 151.938 389.357C136.867 403.838 119.61 412.241 101.691 413.896ZM153.309 187.535C145.739 188.234 135.757 190.674 122.717 197.303C95.3514 211.214 77.2504 231.782 68.8964 242.804C58.166 256.96 41.9507 278.353 31.1946 302.433C18.3332 331.226 17.2732 355.69 28.0443 375.143C40.1641 397.032 67.8759 412.231 95.4351 412.104C97.5491 412.094 99.6358 411.991 101.678 411.803C144.489 407.855 171.441 366.041 179.97 343.473C182.695 336.264 183.055 332.652 183.6 327.186C184.218 320.994 185.064 312.516 189.975 294.117C192.818 283.464 195.496 275.226 197.649 268.606C202.305 254.284 204.869 246.395 203.593 233.1C202.928 226.187 200.908 205.151 185.371 194.354C177.445 188.846 168.874 188.041 163.753 187.559C160.935 187.294 157.489 187.149 153.309 187.535Z" fill="#202F4B"/>
<path d="M97.8585 321.6C97.5634 321.543 68.1679 315.848 53.0583 319.752L52.5346 317.724C68.1057 313.703 97.0383 319.304 98.2624 319.545L97.8585 321.6Z" fill="#202F4B"/>
<path d="M49.9746 330.384L48.2162 329.248C56.7196 316.095 87.0357 317.866 88.322 317.948L88.1895 320.037C87.8864 320.019 57.8133 318.259 49.9746 330.384Z" fill="#202F4B"/>
<path d="M77.2337 240.342L75.609 239.02C93.8596 216.591 117.1 205.242 119.179 205.05L119.371 207.135C119.388 207.132 119.409 207.132 119.434 207.126C117.621 207.538 95.3713 218.052 77.2337 240.342Z" fill="#202F4B"/>
<path d="M70.2616 252.019L68.4428 250.981C71.0229 246.461 72.8926 243.735 72.9711 243.621L74.6965 244.808C74.6774 244.836 72.7939 247.582 70.2616 252.019Z" fill="#202F4B"/>
<path d="M41.7841 384.472C33.3769 377.156 27.9683 365.703 26.1424 351.351C24.7714 340.568 25.8656 332.078 25.9132 331.722L27.9896 331.998C27.9448 332.336 23.7442 365.998 43.1591 382.892L41.7841 384.472Z" fill="#202F4B"/>
<path d="M68.8093 414.258L94.4189 470.021C99.5887 481.279 107.78 490.908 118.153 497.679C136.753 509.822 170.617 523.135 225.517 516.359C239.435 514.641 252.465 508.597 262.718 499.03L403.095 368.04C405.973 365.354 408.606 362.418 410.962 359.265L430.378 333.287C438.771 322.058 443.385 308.456 443.556 294.438L444.157 245.328L68.8093 414.258Z" fill="white"/>
<path d="M195.356 518.85C157.776 518.581 132.913 508.104 117.791 498.233C107.379 491.436 99.0893 481.776 93.8179 470.297L68.2082 414.533C68.1347 414.372 68.1285 414.19 68.1903 414.025C68.2521 413.86 68.3773 413.727 68.5381 413.654L443.886 244.725C444.091 244.631 444.331 244.651 444.52 244.774C444.709 244.898 444.821 245.109 444.819 245.335L444.218 294.446C444.043 308.698 439.441 322.266 430.908 333.683L411.492 359.661C409.118 362.837 406.445 365.818 403.546 368.523L263.169 499.513C252.775 509.212 239.784 515.264 225.598 517.015C214.71 518.359 204.645 518.916 195.356 518.85ZM69.6881 414.586L95.0196 469.745C100.187 480.997 108.312 490.465 118.515 497.125C137.189 509.316 170.898 522.435 225.435 515.702C239.342 513.986 252.078 508.053 262.267 498.545L402.644 367.556C405.485 364.905 408.106 361.982 410.433 358.869L429.849 332.891C438.213 321.7 442.724 308.4 442.895 294.43L443.483 246.356L69.6881 414.586Z" fill="#202F4B"/>
<path d="M139.737 423.318C139.737 423.318 33.0526 390.907 59.0939 337.636C85.1352 284.364 285.074 188.05 285.074 188.05L363.227 149.501L444.25 182.155L458.509 221.603L438.983 260.809L409.553 287.541C409.553 287.541 259.18 465.657 139.737 423.318Z" fill="white"/>
<path d="M177.686 430.465C164.268 430.369 151.527 428.197 139.53 423.946C138.946 423.767 122.397 418.65 104.26 409.451C87.2523 400.825 65.3209 386.735 57.4266 368.601C52.9861 358.401 53.3469 347.885 58.4994 337.345C64.4866 325.097 80.1306 309.591 104.997 291.257C124.84 276.625 150.586 260.151 181.519 242.293C234.171 211.895 284.287 187.695 284.787 187.454L362.935 148.908C363.104 148.825 363.3 148.817 363.475 148.888L444.497 181.542C444.671 181.612 444.808 181.754 444.872 181.931L459.13 221.378C459.192 221.549 459.18 221.736 459.1 221.898L439.575 261.104C439.538 261.177 439.488 261.243 439.427 261.298L410.029 288.001C408.787 289.463 371.202 333.461 319.832 371.836C289.282 394.658 259.9 411.061 232.503 420.589C213.225 427.294 194.899 430.587 177.686 430.465ZM363.255 150.225L285.367 188.643C284.861 188.886 234.783 213.068 182.173 243.442C112.632 283.592 70.277 316.264 59.6874 337.926C54.7134 348.101 54.3608 358.244 58.6386 368.071C66.3737 385.841 88.032 399.735 104.839 408.262C123.112 417.532 139.763 422.635 139.929 422.685C139.939 422.689 139.948 422.692 139.958 422.695C152.171 427.024 164.73 428.991 177.37 429.082C228.298 429.451 280.737 399.388 319.021 370.79C370.888 332.049 408.672 287.559 409.047 287.114C409.066 287.092 409.086 287.071 409.108 287.052L438.446 260.402L457.79 221.562L443.729 182.659L363.255 150.225Z" fill="#202F4B"/>
<path d="M420.739 293.099C412.4 303.723 403.814 314.233 395.763 324.221C370.736 355.262 304.985 399.696 267.569 428.937C230.153 458.178 179.657 462.522 157.004 460.649C147.533 459.867 131.645 457.465 115.164 451.809C117.872 439.828 125.571 426.557 134.792 410.906C135.043 410.472 135.303 410.038 135.559 409.603C147.139 389.945 168.423 359.596 271.148 287.406C322.155 251.56 341.135 242.014 364.68 245.308C366.94 245.624 400.603 250.783 414.506 274.746C415.444 276.361 416.283 278.048 417.027 279.806C418.76 283.881 419.99 288.334 420.739 293.099Z" fill="#C2D3D6"/>
<path d="M165.738 461.645C161.62 461.616 158.609 461.425 156.952 461.288C150.56 460.76 133.673 458.84 114.957 452.415C114.647 452.309 114.467 451.987 114.539 451.667C117.343 439.259 125.551 425.329 134.24 410.581C134.408 410.29 134.581 409.996 134.755 409.701L135.005 409.278C141.268 398.647 149.687 386.258 168.727 367.744C191.548 345.552 224.93 319.101 270.779 286.881C294.284 270.363 313.001 257.956 327.945 251.096C341.673 244.795 352.341 242.932 364.769 244.673C366.236 244.878 400.876 249.973 415.061 274.424C416.003 276.045 416.863 277.772 417.618 279.556C419.346 283.621 420.61 288.144 421.372 293C421.4 293.176 421.354 293.355 421.243 293.495C414.971 301.486 408.55 309.424 402.34 317.101C400.289 319.637 398.259 322.146 396.262 324.624C377.62 347.745 337.055 377.825 301.266 404.364C289.085 413.396 277.58 421.928 267.964 429.443C251.339 442.436 230.79 451.736 206.89 457.086C189.503 460.979 174.888 461.711 165.738 461.645ZM115.921 451.389C134.282 457.617 150.775 459.491 157.057 460.009C180.472 461.949 230.014 457.473 267.174 428.432C276.803 420.907 288.314 412.371 300.502 403.334C336.229 376.84 376.724 346.813 395.263 323.819C397.261 321.341 399.291 318.83 401.343 316.294C407.492 308.692 413.849 300.833 420.061 292.924C419.311 288.277 418.092 283.949 416.437 280.057C415.702 278.321 414.866 276.643 413.952 275.068C400.076 251.152 366.034 246.145 364.591 245.944C340.629 242.592 321.298 252.947 271.517 287.93C163.095 364.125 145.541 393.921 136.111 409.928L135.86 410.354C135.688 410.645 135.516 410.936 135.348 411.227C126.84 425.667 118.8 439.313 115.921 451.389Z" fill="#202F4B"/>
<path d="M372.236 291.637C339.677 339.682 307.519 371.11 284.888 391.277C277.748 397.639 251.278 420.725 214.05 429.232C198.628 432.756 188.522 432.142 180.359 426.868C169.823 420.061 165.001 407.089 164.928 396.769C164.82 381.333 175.317 368.366 201.025 347.423C242.682 313.486 284.802 290.768 314.8 274.573C320.36 278.448 328.587 283.263 339.348 286.655C352.837 290.907 364.689 292.097 372.236 291.637Z" fill="white"/>
<path d="M197.026 432.095C190.221 432.046 184.775 430.504 180.002 427.42C168.497 419.987 164.337 406.265 164.271 396.773C164.215 388.905 166.916 381.595 172.769 373.767C178.291 366.382 186.877 358.1 200.609 346.912C242.236 313 283.897 290.509 314.316 274.086L314.488 273.994C314.706 273.877 314.972 273.891 315.176 274.033C322.671 279.257 330.87 283.292 339.546 286.027C350.07 289.345 361.114 291.656 372.196 290.98C372.444 290.965 372.683 291.092 372.808 291.311C372.932 291.529 372.921 291.798 372.781 292.005C346.81 330.329 317.327 363.25 285.325 391.768C263.751 410.993 239.155 424.169 214.197 429.873C207.588 431.383 201.951 432.13 197.026 432.095ZM314.757 275.343C284.4 291.732 242.887 314.168 201.44 347.933C174.532 369.854 165.484 382.176 165.586 396.764C165.655 406.652 170.36 419.625 180.716 426.315C188.617 431.42 198.542 432.1 213.903 428.59C238.646 422.937 263.041 409.863 284.451 390.786C316.066 362.613 345.22 330.148 370.947 292.364C360.155 292.87 349.407 290.516 339.15 287.282C330.476 284.548 322.271 280.532 314.757 275.343Z" fill="#202F4B"/>
<path d="M276.151 296.805C275.869 296.803 275.61 296.618 275.526 296.335C275.422 295.987 275.619 295.621 275.967 295.516C289.518 291.47 303.53 288.923 317.611 287.949C329.588 287.12 341.713 287.425 353.648 288.856C354.009 288.899 354.266 289.227 354.223 289.587C354.18 289.948 353.85 290.204 353.492 290.162C341.638 288.742 329.597 288.439 317.702 289.261C303.717 290.229 289.803 292.758 276.344 296.777C276.28 296.796 276.215 296.805 276.151 296.805Z" fill="#202F4B"/>
<path d="M231.773 424.538C231.74 424.538 231.708 424.535 231.675 424.53C226.328 423.692 222.138 420.859 219.224 416.107C213.283 406.421 212.527 388.976 216.974 364.255C220.273 345.919 225.368 330.193 225.419 330.036C225.532 329.692 225.902 329.503 226.248 329.615C226.593 329.728 226.782 330.099 226.67 330.444C226.467 331.067 206.551 392.928 220.346 415.42C223.05 419.827 226.93 422.455 231.879 423.23C232.238 423.287 232.483 423.623 232.426 423.983C232.376 424.308 232.093 424.541 231.773 424.538Z" fill="#202F4B"/>
<path d="M291.179 326.894C291.165 328.902 289.526 330.518 287.518 330.503C285.51 330.489 283.894 328.85 283.909 326.842C283.923 324.835 285.562 323.219 287.57 323.233C289.578 323.247 291.193 324.887 291.179 326.894Z" fill="#C2D3D6"/>
<path d="M285.37 302.048C285.355 304.055 283.716 305.671 281.708 305.657C279.701 305.642 278.085 304.003 278.099 301.996C278.114 299.988 279.753 298.372 281.76 298.387C283.768 298.401 285.384 300.04 285.37 302.048Z" fill="#C2D3D6"/>
<path d="M327.218 310.901C327.203 312.908 325.564 314.524 323.557 314.51C321.549 314.495 319.933 312.856 319.948 310.849C319.962 308.841 321.601 307.225 323.609 307.24C325.616 307.254 327.232 308.893 327.218 310.901Z" fill="#C2D3D6"/>
<path d="M255.776 373.684C255.762 375.692 254.122 377.308 252.115 377.293C250.107 377.279 248.491 375.64 248.506 373.632C248.52 371.624 250.159 370.009 252.167 370.023C254.175 370.037 255.79 371.676 255.776 373.684Z" fill="#C2D3D6"/>
<path d="M202.84 360.475C202.825 362.483 201.186 364.099 199.178 364.084C197.171 364.07 195.555 362.431 195.569 360.423C195.584 358.416 197.223 356.8 199.231 356.814C201.238 356.828 202.854 358.468 202.84 360.475Z" fill="#C2D3D6"/>
<path d="M230.573 369.654C230.558 371.662 228.919 373.278 226.911 373.264C224.904 373.249 223.288 371.61 223.302 369.602C223.317 367.595 224.956 365.979 226.963 365.993C228.971 366.008 230.587 367.647 230.573 369.654Z" fill="#C2D3D6"/>
<path d="M177.327 399.638C177.313 401.645 175.674 403.261 173.666 403.247C171.658 403.233 170.042 401.593 170.057 399.586C170.071 397.578 171.71 395.962 173.718 395.977C175.726 395.991 177.341 397.63 177.327 399.638Z" fill="#C2D3D6"/>
<path d="M245.711 405.687C245.696 407.694 244.057 409.31 242.049 409.296C240.042 409.281 238.426 407.642 238.44 405.635C238.455 403.627 240.094 402.011 242.101 402.025C244.109 402.04 245.725 403.679 245.711 405.687Z" fill="#C2D3D6"/>
<path d="M284.748 388.859C284.734 390.867 283.095 392.483 281.087 392.469C279.08 392.454 277.464 390.815 277.478 388.807C277.493 386.8 279.132 385.184 281.139 385.198C283.147 385.213 284.763 386.852 284.748 388.859Z" fill="#C2D3D6"/>
<path d="M195.099 426.28C195.084 428.288 193.445 429.904 191.437 429.889C189.43 429.875 187.814 428.236 187.828 426.228C187.843 424.221 189.482 422.605 191.489 422.619C193.497 422.633 195.113 424.273 195.099 426.28Z" fill="#C2D3D6"/>
<path d="M314.575 284.723C314.561 286.731 312.922 288.346 310.914 288.332C308.906 288.318 307.29 286.678 307.305 284.671C307.319 282.663 308.958 281.047 310.966 281.062C312.974 281.076 314.589 282.715 314.575 284.723Z" fill="#C2D3D6"/>
<path d="M319.712 343.777C319.698 345.785 318.058 347.401 316.051 347.386C314.043 347.372 312.427 345.733 312.442 343.725C312.456 341.718 314.095 340.102 316.103 340.116C318.11 340.13 319.726 341.77 319.712 343.777Z" fill="#C2D3D6"/>
<path d="M357.214 302.562C357.2 304.57 355.561 306.185 353.553 306.171C351.545 306.157 349.929 304.517 349.944 302.51C349.958 300.502 351.597 298.886 353.605 298.901C355.613 298.915 357.228 300.554 357.214 302.562Z" fill="#C2D3D6"/>
<path d="M259.869 339.5C259.855 341.507 258.216 343.123 256.208 343.109C254.2 343.095 252.585 341.455 252.599 339.448C252.613 337.44 254.253 335.824 256.26 335.839C258.268 335.853 259.884 337.492 259.869 339.5Z" fill="#C2D3D6"/>
<path d="M209.361 405.426C209.346 407.434 207.707 409.05 205.7 409.036C203.692 409.021 202.076 407.382 202.091 405.374C202.105 403.367 203.744 401.751 205.752 401.765C207.759 401.78 209.375 403.419 209.361 405.426Z" fill="#C2D3D6"/>
<path d="M246.307 322.296C246.293 324.304 244.654 325.92 242.646 325.905C240.638 325.891 239.023 324.252 239.037 322.244C239.051 320.236 240.691 318.621 242.698 318.635C244.706 318.649 246.322 320.289 246.307 322.296Z" fill="#C2D3D6"/>
<path d="M288.821 357.669C288.806 359.677 287.167 361.293 285.16 361.278C283.152 361.264 281.536 359.625 281.551 357.617C281.565 355.609 283.204 353.994 285.212 354.008C287.219 354.022 288.835 355.661 288.821 357.669Z" fill="#C2D3D6"/>
<path d="M140.893 512.431C139.586 512.422 138.343 511.66 137.783 510.386C124.548 480.28 112.121 430.885 111.996 430.389C111.538 428.556 112.652 426.698 114.485 426.24C116.316 425.78 118.176 426.894 118.634 428.728C118.757 429.217 131.046 478.059 144.047 507.632C144.808 509.362 144.022 511.381 142.292 512.141C141.837 512.342 141.36 512.435 140.893 512.431Z" fill="#C2D3D6"/>
<path d="M210.311 521.19C208.619 521.178 207.157 519.912 206.945 518.188C202.859 485.051 198.728 440.464 198.687 440.018C198.513 438.137 199.897 436.47 201.779 436.296C203.661 436.122 205.327 437.507 205.5 439.389C205.541 439.834 209.662 484.318 213.735 517.35C213.967 519.226 212.634 520.932 210.759 521.164C210.608 521.182 210.459 521.191 210.311 521.19Z" fill="#C2D3D6"/>
<path d="M416.425 355.349C416.375 355.349 416.324 355.348 416.274 355.345C414.387 355.249 412.935 353.642 413.03 351.755C414.704 318.772 414.268 279.267 414.263 278.871C414.241 276.982 415.756 275.432 417.645 275.41C419.54 275.406 421.083 276.903 421.105 278.792C421.11 279.189 421.548 318.909 419.864 352.102C419.77 353.938 418.246 355.362 416.425 355.349Z" fill="#C2D3D6"/>
<path d="M355.979 415.405C354.089 415.392 352.568 413.849 352.582 411.96L353.03 349.362C353.043 347.472 354.586 345.951 356.476 345.965C358.365 345.978 359.886 347.521 359.872 349.411L359.424 412.009C359.411 413.898 357.868 415.419 355.979 415.405Z" fill="#C2D3D6"/>
<path d="M286.558 480.183C284.676 480.17 283.157 478.637 283.162 476.753C283.249 442.734 281.27 400.774 281.25 400.355C281.16 398.467 282.617 396.865 284.504 396.775C286.393 396.691 287.995 398.142 288.085 400.029C288.105 400.451 290.092 442.577 290.004 476.771C289.999 478.661 288.463 480.188 286.574 480.183C286.569 480.183 286.563 480.183 286.558 480.183Z" fill="#C2D3D6"/>
<path d="M172.043 488.965C141.183 488.744 112.956 480.116 88.1186 463.311C86.5537 462.252 86.1436 460.125 87.2023 458.56C88.2615 456.995 90.3879 456.584 91.9532 457.644C147.43 495.182 208.913 481.11 240.624 469.38C267.824 459.319 299.053 433.668 324.145 413.057C330.859 407.543 337.2 402.335 342.863 397.925C368.901 377.647 440.446 287.732 441.166 286.826C442.342 285.347 444.494 285.101 445.973 286.275C447.453 287.451 447.699 289.602 446.524 291.082C443.565 294.807 373.747 382.546 347.067 403.323C341.474 407.678 335.166 412.859 328.488 418.345C302.999 439.281 271.277 465.337 242.997 475.798C219.504 484.488 196.168 488.919 173.638 488.969C173.106 488.97 172.574 488.968 172.043 488.965Z" fill="#C2D3D6"/>
<path d="M462.736 228.476C454.767 247.852 438.309 270.713 420.739 293.099C415.687 299.536 406.569 311.675 395.763 324.221C368.684 355.661 334.594 395.241 280.423 425.608C256.897 438.796 211.412 463.61 157.004 460.649C138.724 459.654 125.456 455.344 115.164 451.809C92.2252 443.93 68.138 429.73 58.6129 404.776C42.4132 362.338 58.7482 338.142 59.0893 337.644C44.8579 369.737 82.7949 400.338 134.792 410.906C163.004 416.64 185.013 415.939 207.39 411.828C263.073 401.599 298.796 373.38 362.412 323.128C369.685 317.383 389.886 301.206 409.802 274.713C426.566 252.413 440.03 233.978 435.899 213.743C431.32 191.32 407.669 179.094 403.583 176.982C361.281 155.117 306.329 179.82 259.364 200.933C246.982 206.499 236.984 211.731 230.153 215.478C240.373 202.763 257.819 184.849 282.05 166.561C313.553 142.784 356.166 120.369 400.604 125.819C489.481 136.719 474.488 199.906 462.736 228.476Z" fill="white"/>
<path d="M164.686 461.546C162.1 461.527 159.529 461.448 156.968 461.309C139.226 460.343 126.482 456.396 114.95 452.434C101.836 447.93 90.5674 442.138 81.4588 435.222C70.3098 426.756 62.4157 416.592 57.9956 405.012C41.7663 362.497 57.8515 338.28 58.544 337.27C58.7374 336.988 59.1137 336.9 59.4121 337.066C59.7104 337.233 59.8326 337.599 59.6941 337.912C55.4141 347.564 55.7545 357.324 60.7072 366.921C70.756 386.39 99.1942 402.997 134.924 410.258C160.664 415.49 182.301 415.764 207.271 411.177C262.793 400.978 298.031 373.142 362.002 322.609C368.681 317.333 389.003 301.28 409.273 274.315C425.442 252.807 439.407 234.232 435.251 213.876C431.176 193.916 411.535 181.837 403.279 177.57C384.572 167.9 361.707 166.564 333.379 173.483C308.542 179.551 282.559 191.231 259.635 201.536C249.742 205.984 239.93 210.87 230.471 216.058C230.195 216.21 229.85 216.145 229.647 215.903C229.444 215.661 229.44 215.31 229.638 215.064C237.095 205.786 253.769 187.078 281.651 166.033C299.99 152.192 318.355 141.621 336.235 134.614C358.618 125.843 380.302 122.663 400.684 125.162C432.761 129.096 454.375 140.236 464.925 158.272C478.923 182.204 469.945 212.687 463.347 228.728C454.803 249.5 436.367 274.259 421.259 293.508C420.24 294.806 419.055 296.336 417.725 298.055C412.313 305.048 404.9 314.626 396.263 324.653C368.978 356.334 335.019 395.761 280.746 426.185C270.877 431.716 252.509 442.013 230.515 449.807C208.076 457.759 185.968 461.698 164.686 461.546ZM55.8361 346.058C54.9135 348.64 53.993 351.829 53.2987 355.602C51.4067 365.881 50.9 382.716 59.2313 404.54C69.1645 430.563 95.2475 444.268 115.379 451.183C126.824 455.114 139.467 459.032 157.04 459.988C159.66 460.131 162.265 460.209 164.841 460.228C216.652 460.6 259.155 436.771 280.099 425.031C334.169 394.722 368.043 355.392 395.261 323.789C403.875 313.789 411.276 304.227 416.68 297.246C418.012 295.524 419.198 293.991 420.218 292.691C435.273 273.509 453.642 248.847 462.125 228.224C468.629 212.41 477.494 182.38 463.783 158.94C453.453 141.279 432.169 130.357 400.524 126.475C354.833 120.872 311.094 145.469 282.448 167.089C257.086 186.231 241.049 203.417 232.807 213.284C241.372 208.678 250.2 204.327 259.093 200.329C282.069 190.001 308.11 178.295 333.066 172.199C361.718 165.199 384.883 166.572 403.887 176.395C412.311 180.749 432.357 193.092 436.546 213.611C438.479 223.078 436.805 232.654 431.278 243.749C426.483 253.374 419.571 262.818 410.331 275.11C389.957 302.211 369.534 318.344 362.822 323.646C298.685 374.311 263.355 402.219 207.51 412.478C182.363 417.098 160.576 416.822 134.661 411.554C98.5478 404.215 69.7598 387.344 59.5322 367.527C55.8671 360.425 54.6336 353.235 55.8361 346.058Z" fill="#202F4B"/>
<path d="M442.074 235.517C442.032 235.517 441.989 235.512 441.947 235.501C441.646 235.429 441.461 235.127 441.533 234.826C441.556 234.735 443.725 225.517 443.106 213.564C442.537 202.568 439.424 186.935 427.82 174.898C409.486 155.877 376.038 151.091 328.407 160.677C328.104 160.736 327.808 160.541 327.747 160.238C327.687 159.935 327.883 159.64 328.186 159.579C376.221 149.913 410.016 154.807 428.632 174.126C440.48 186.422 443.652 202.347 444.227 213.542C444.848 225.648 442.644 234.995 442.622 235.088C442.56 235.346 442.328 235.519 442.074 235.517Z" fill="#202F4B"/>
<path d="M458.456 229.005C458.429 229.005 458.401 229.002 458.373 228.998C458.067 228.95 457.859 228.665 457.906 228.359C457.926 228.232 459.855 215.511 457.837 200.024C455.98 185.778 450.306 166.2 433.815 153.839C421.104 144.312 403.702 140.266 382.099 141.816C356.243 143.67 324.023 153.578 286.333 171.267C286.054 171.398 285.72 171.278 285.589 170.998C285.457 170.718 285.577 170.385 285.857 170.253C323.675 152.505 356.03 142.562 382.024 140.699C403.907 139.131 421.559 143.251 434.492 152.947C451.3 165.549 457.07 185.442 458.951 199.911C460.985 215.551 459.033 228.403 459.013 228.531C458.97 228.809 458.729 229.007 458.456 229.005Z" fill="#202F4B"/>
<mask id="mask3_5325_168" style="mask-type:luminance" maskUnits="userSpaceOnUse" x="17" y="54" width="542" height="542">
<path d="M17.5324 54.1H558.532V595.1H17.5324V54.1ZM331.433 328.48C331.433 328.48 309.071 379.702 325.101 396.733C341.131 413.765 372.786 371.844 389.316 345.295C385.591 345.796 371.414 344.282 364.262 342.608C357.525 341.884 346.878 340.852 337.788 341.845C328.918 336.763 331.433 328.48 331.433 328.48Z" fill="white"/>
</mask>
<g mask="url(#mask3_5325_168)">
<path d="M385.003 269.846C385.981 256.075 373.251 241.902 358.304 240.31C353.889 239.84 349.894 240.533 346.526 241.664C338.491 244.363 333.723 251.322 333.16 252.117C332.159 253.529 331.712 254.457 330.317 255.876C327.134 259.114 324.74 259.09 321.882 260.951C316.575 264.406 313.408 271.932 314.694 277.852C315.093 279.688 315.827 280.938 317.029 282.987C319.834 287.766 323.416 290.524 325.122 291.701C326.651 292.755 328.971 294.125 332.063 295.155C330.033 300.227 328.003 305.299 325.973 310.37C326.944 315.975 330.978 320.647 336.3 322.329C343.454 324.59 349.09 320.228 349.556 319.854C352.023 311.776 354.489 303.699 356.955 295.621C372.425 293.718 384.133 282.101 385.003 269.846Z" fill="#F0F4F2"/>
<path d="M340.545 323.637C339.158 323.644 337.666 323.45 336.102 322.956C330.565 321.206 326.335 316.311 325.325 310.482C325.304 310.362 325.317 310.239 325.362 310.126L331.197 295.551C328.902 294.724 326.736 293.613 324.749 292.242C322.411 290.63 319.075 287.772 316.462 283.32C315.264 281.28 314.473 279.932 314.052 277.991C312.694 271.74 315.975 264.012 321.523 260.399C322.614 259.689 323.639 259.242 324.63 258.81C326.321 258.074 327.918 257.378 329.847 255.415C330.82 254.426 331.316 253.679 331.89 252.815C332.113 252.478 332.348 252.126 332.623 251.736L332.665 251.677C334.345 249.294 339.039 243.486 346.317 241.041C350.32 239.696 354.376 239.23 358.374 239.656C373.662 241.284 386.667 255.696 385.659 269.892C385.219 276.089 382.111 282.198 376.905 287.094C371.693 291.996 364.802 295.227 357.46 296.219L350.185 320.046C350.146 320.173 350.07 320.285 349.968 320.367C349.465 320.771 345.742 323.612 340.545 323.637ZM326.654 310.439C327.636 315.708 331.482 320.117 336.498 321.702C342.861 323.712 347.917 320.273 348.987 319.463L356.326 295.429C356.402 295.181 356.617 295 356.875 294.968C371.404 293.18 383.472 282.124 384.347 269.799C385.309 256.265 372.862 242.522 358.235 240.964C354.427 240.559 350.557 241.004 346.736 242.287C339.825 244.608 335.345 250.157 333.74 252.435L333.696 252.497C333.429 252.874 333.202 253.217 332.985 253.543C332.374 254.464 331.846 255.258 330.786 256.337C328.678 258.482 326.887 259.262 325.156 260.016C324.171 260.446 323.241 260.851 322.242 261.501C317.205 264.781 314.108 272.053 315.337 277.712C315.714 279.447 316.422 280.654 317.596 282.654C320.087 286.899 323.267 289.622 325.496 291.16C327.57 292.59 329.85 293.725 332.272 294.531C332.444 294.588 332.584 294.714 332.66 294.878C332.737 295.043 332.741 295.231 332.674 295.399L326.654 310.439Z" fill="#202F4B"/>
<path d="M332.437 294.822L329.99 302.635C337.275 300.581 345.323 295.546 347.501 294.126C343.61 296.513 338.376 296.672 332.437 294.822Z" fill="#202F4B"/>
<path d="M329.425 303.185L332.191 294.351L332.549 294.463C338.486 296.313 343.589 296.086 347.305 293.806L347.706 294.441C345.431 295.925 337.435 300.926 330.092 302.996L329.425 303.185ZM332.684 295.289L330.558 302.077C335.295 300.636 340.234 298.044 343.629 296.067C340.472 296.768 336.766 296.511 332.684 295.289Z" fill="#202F4B"/>
<path d="M361.635 283.476C359.206 283.488 356.944 282.405 356.813 282.341C356.539 282.208 356.426 281.877 356.559 281.603C356.693 281.329 357.023 281.213 357.297 281.348C357.336 281.367 361.261 283.241 363.907 281.868C365.155 281.22 365.946 279.914 366.258 277.987C366.505 276.462 366.24 275.377 365.47 274.76C363.465 273.155 358.336 274.682 356.528 275.406C356.245 275.519 355.924 275.381 355.81 275.098C355.697 274.815 355.834 274.494 356.117 274.38C356.407 274.264 363.243 271.563 366.16 273.898C367.264 274.782 367.664 276.217 367.349 278.164C366.978 280.456 365.989 282.033 364.412 282.85C363.537 283.304 362.573 283.472 361.635 283.476Z" fill="#202F4B"/>
</g>
<path d="M276.703 295.719C276.703 295.719 288.5 292.234 302.539 290.456C316.578 288.678 328.606 287.887 335.616 288.313C342.627 288.739 347.759 289.026 353.636 290.321C359.513 291.615 366.672 291.902 372.743 291.728C370.563 294.409 369.217 296.088 369.217 296.088C369.217 296.088 363.891 303.719 362.727 305.365" stroke="#202F4B" stroke-width="1.25278"/>
<path d="M261.141 129.554C261.141 129.554 298.902 124.548 303.007 105.636C304.351 99.4421 301.619 94.1527 300.205 91.2883C290.13 70.8713 256.457 59.096 241.35 71.5049C235.365 76.4203 232.025 85.3519 232.535 93.2327C232.578 93.8982 233.291 103.116 239.44 110.167C240.568 111.461 241.269 111.98 242.754 113.799C246.338 118.191 248.279 122.541 249.37 125.597C253.294 126.916 257.217 128.236 261.141 129.554Z" fill="#202F4B"/>
<path d="M261.109 129.884L249.118 125.854L249.065 125.706C247.524 121.388 245.316 117.45 242.503 114.003C241.627 112.931 241.027 112.315 240.447 111.718C240.042 111.302 239.658 110.909 239.196 110.378C232.924 103.187 232.238 93.6559 232.212 93.2534C231.673 84.9267 235.263 76.086 241.145 71.255C247.067 66.3906 256.44 64.89 266.86 67.1362C281.444 70.2806 294.961 79.9296 300.496 91.1456L300.607 91.3715C302.022 94.2331 304.656 99.56 303.322 105.705C301.619 113.551 293.777 120.22 280.644 124.991C270.772 128.576 261.278 129.862 261.183 129.874L261.109 129.884ZM249.621 125.341L261.172 129.223C263.044 128.959 298.767 123.647 302.691 105.567C303.977 99.6439 301.505 94.6449 300.028 91.658L299.916 91.4316C294.464 80.3826 281.125 70.8728 266.724 67.7675C256.496 65.5637 247.324 67.0154 241.555 71.7547C235.826 76.4597 232.331 85.083 232.857 93.2119C232.883 93.6048 233.553 102.925 239.683 109.954C240.133 110.47 240.511 110.858 240.91 111.268C241.5 111.874 242.11 112.501 243.004 113.595C245.832 117.06 248.058 121.011 249.621 125.341Z" fill="#202F4B"/>
<path d="M269.885 127.849C269.885 127.849 258.748 98.5891 234.3 101.169C209.852 103.748 262.891 138.49 269.885 127.849Z" fill="#5D8A9B"/>
<path d="M256.31 174.287C256.31 174.287 297.978 155.947 261.415 119.214C224.851 82.4811 185.388 130.624 193.352 143.502C201.316 156.38 256.31 174.287 256.31 174.287Z" fill="#202F4B"/>
<path d="M256.327 174.632L256.21 174.594C253.96 173.862 201.013 156.503 193.077 143.672C189.182 137.372 195.923 123.824 207.504 114.678C212.848 110.458 221.477 105.411 232.245 105.333C242.664 105.259 252.553 109.853 261.644 118.986C273.329 130.724 278.281 141.828 276.363 151.989C273.55 166.894 256.611 174.508 256.44 174.583L256.327 174.632ZM233.943 106.08C221.556 105.607 211.77 112.131 207.905 115.185C196.764 123.984 189.959 137.399 193.627 143.332C201.261 155.676 253.414 172.994 256.29 173.941C257.753 173.26 273.099 165.808 275.728 151.866C277.602 141.927 272.71 131.019 261.186 119.441C251.605 109.817 242.196 106.395 233.943 106.08Z" fill="#202F4B"/>
<path d="M259.11 132.819C246.706 123.496 229.03 131.099 220.894 137.93C219.204 139.349 217.717 140.911 216.379 142.549C216.119 142.448 216.133 142.454 215.874 142.353C216.302 133.346 212.549 126.893 208.414 126.278C204.309 125.667 200.481 130.91 199.976 131.575C197.743 134.517 196.736 139.03 197.739 146.722C184.467 162.876 171.194 179.031 157.922 195.185C157.931 196.692 158.095 201.5 160.759 206.502C165.092 213.915 169.426 221.33 173.759 228.743C179.286 223.634 184.813 218.526 190.34 213.417C196.019 206.343 201.698 199.268 207.377 192.194C209.073 194.867 211.123 197.028 213.423 198.347C225.09 205.039 250.041 194.088 267.797 164.721C271.248 152.148 267.781 139.335 259.11 132.819Z" fill="white"/>
<path d="M173.734 229.403C173.71 229.402 173.686 229.4 173.662 229.397C173.463 229.367 173.289 229.249 173.188 229.077L160.188 206.835C157.671 202.11 157.273 197.512 157.26 195.189C157.259 195.034 157.313 194.885 157.41 194.765L197.047 146.522C196.152 139.392 196.918 134.51 199.45 131.174L199.496 131.114C201.225 128.82 204.693 125.057 208.511 125.623C212.653 126.239 216.676 132.227 216.567 141.296C217.82 139.843 219.104 138.569 220.468 137.424C228.845 130.391 246.85 122.778 259.507 132.29C268.371 138.951 271.959 152.054 268.435 164.896C268.419 164.955 268.395 165.01 268.363 165.063C260.171 178.612 249.618 189.469 238.651 195.632C228.754 201.194 219.2 202.423 213.094 198.921C211.008 197.725 209.027 195.797 207.325 193.315L190.855 213.831C190.835 213.857 190.812 213.881 190.788 213.903L174.208 229.228C174.079 229.348 173.908 229.41 173.734 229.403ZM158.586 195.418C158.624 197.685 159.054 201.894 161.342 206.19L173.915 227.698L189.855 212.965L206.861 191.78C206.995 191.613 207.192 191.519 207.414 191.534C207.627 191.546 207.821 191.66 207.935 191.84C209.63 194.512 211.642 196.563 213.752 197.773C219.451 201.042 228.516 199.81 238.003 194.479C248.754 188.437 259.114 177.778 267.184 164.457C270.525 152.163 267.126 139.67 258.713 133.347C246.669 124.296 229.384 131.665 221.318 138.437C219.763 139.743 218.315 141.225 216.891 142.967C216.709 143.189 216.406 143.27 216.139 143.165L215.634 142.969C215.369 142.866 215.199 142.605 215.213 142.321C215.631 133.511 211.959 127.474 208.316 126.932C205.059 126.453 201.802 130.252 200.552 131.91L200.503 131.975C198.162 135.059 197.492 139.718 198.395 146.636C198.418 146.817 198.366 147 198.25 147.141L158.586 195.418Z" fill="#202F4B"/>
<path d="M207.373 192.196C205.608 194.396 203.843 196.596 202.078 198.796C200.834 195.281 199.264 189.257 200.163 181.912C200.577 178.525 201.42 175.644 202.293 173.362C202.17 180.006 204.111 187.05 207.373 192.196Z" fill="#202F4B"/>
<path d="M201.967 199.451L201.774 198.904C199.793 193.31 199.144 187.58 199.843 181.872C200.202 178.938 200.924 176.036 201.992 173.247L202.651 171.523L202.616 173.368C202.495 179.89 204.375 186.863 207.646 192.023L207.77 192.218L201.967 199.451ZM201.987 175.194C201.268 177.4 200.763 179.666 200.484 181.951C199.821 187.372 200.395 192.814 202.192 198.137L206.977 192.173C204.02 187.418 202.207 181.205 201.987 175.194Z" fill="#202F4B"/>
<path d="M236.693 177.467C236.55 177.461 236.41 177.391 236.322 177.265C236.171 177.05 236.223 176.754 236.437 176.603C245.141 170.482 246.79 161.337 246.806 161.246C246.85 160.987 247.096 160.812 247.354 160.857C247.612 160.901 247.787 161.146 247.743 161.405C247.677 161.795 246.024 171.023 236.984 177.38C236.896 177.442 236.793 177.47 236.693 177.467Z" fill="#202F4B"/>
<path d="M269.067 144.292C256.782 140.396 249.03 141.949 244.148 144.225C239.716 146.291 237.12 149.2 231.113 150.177C224.663 151.226 221.248 148.814 217.275 148.62C211.397 148.333 202.933 152.771 191.72 173.836C194.32 166.178 201.341 149.096 218.323 137.115C220.855 135.328 231.933 128.101 247.089 126.29C254.476 125.407 257.97 126.704 260.385 128.171C267.834 132.698 268.891 142.343 269.067 144.292Z" fill="#202F4B"/>
<path d="M192.005 173.989L191.414 173.732C195.086 162.918 202.703 147.74 218.137 136.851C220.252 135.358 231.591 127.817 247.051 125.969C254.659 125.06 258.145 126.433 260.552 127.896C267.578 132.165 269.072 140.765 269.388 144.264L269.432 144.748L268.969 144.601C259.151 141.488 250.845 141.46 244.284 144.518C242.845 145.189 241.58 145.963 240.357 146.712C237.852 148.245 235.261 149.83 231.165 150.496C226.951 151.181 224.002 150.411 221.401 149.731C219.984 149.36 218.645 149.01 217.259 148.943C217.168 148.939 217.076 148.935 216.984 148.933C209.347 148.767 200.945 157.194 192.005 173.989ZM252.154 126.33C250.719 126.298 249.061 126.38 247.127 126.611C231.822 128.44 220.603 135.902 218.509 137.379C205.04 146.882 197.577 159.689 193.502 169.935C201.807 155.405 209.701 148.128 217 148.287C217.098 148.289 217.194 148.292 217.291 148.298C218.743 148.368 220.113 148.726 221.564 149.106C224.104 149.77 226.982 150.522 231.061 149.858C235.032 149.212 237.455 147.73 240.02 146.16C241.258 145.402 242.538 144.619 244.011 143.933C250.618 140.852 258.922 140.821 268.697 143.839C268.298 140.184 266.689 132.381 260.217 128.448C258.507 127.409 256.222 126.418 252.154 126.33Z" fill="#202F4B"/>
<path d="M282.617 286.143C281.941 285.357 280.887 285.246 280.513 285.206C277.875 284.926 275.246 284.567 272.619 284.199C274.843 284.45 276.664 284.632 277.538 284.665C280.957 284.796 281.136 280.095 281.136 280.095L251.01 274.276C249.077 273.902 247.075 274.288 245.42 275.353L224.484 288.817L224.484 288.818L220.359 291.47C197.76 308.012 175.156 324.551 152.557 341.094L147.351 242.035C138.846 229.402 123.519 224.302 111.04 229.094C96.968 234.497 93.3516 249.851 93.0818 251.091C94.0701 272.843 97.2429 302.982 106.897 337.639C117.03 374.013 123.428 396.987 138.259 401.747C160.286 408.819 195.304 373.92 227.007 319.114L227.068 319.081L227.029 318.467L251.871 306.795C251.871 306.795 271.871 298.572 274.863 298.686C277.854 298.8 280.024 298.027 279.678 295.874C279.496 294.745 274.447 294.607 269.688 294.732C273.182 294.548 276.676 294.364 280.17 294.181C281.508 293.884 282.24 292.648 281.978 291.682C281.794 291.006 281.129 290.48 280.317 290.335C281.365 290.498 282.403 290.027 282.93 289.151C283.581 288.07 283.19 286.81 282.617 286.143Z" fill="white"/>
<path d="M143.355 403.292C141.508 403.222 139.742 402.917 138.057 402.377C122.888 397.508 116.63 375.043 106.262 337.825C98.4113 309.641 93.7549 280.472 92.4209 251.121C92.4181 251.063 92.4233 251.006 92.4354 250.95C92.8105 249.228 96.5121 233.963 110.803 228.476C123.794 223.487 139.395 229.034 147.9 241.665C147.967 241.765 148.005 241.881 148.012 242.001L153.154 339.838C164.124 331.808 175.096 323.778 186.068 315.748C197.368 307.478 208.668 299.207 219.967 290.936L224.096 288.281C224.106 288.274 224.116 288.267 224.126 288.26L245.062 274.797C246.869 273.635 249.026 273.22 251.135 273.627L281.261 279.445C281.582 279.507 281.809 279.794 281.796 280.12C281.749 281.371 281.284 283.362 279.994 284.485C280.19 284.507 280.386 284.528 280.583 284.549C281.003 284.594 282.273 284.728 283.118 285.712L283.118 285.712C283.87 286.586 284.308 288.142 283.497 289.491C283.18 290.019 282.724 290.427 282.194 290.69C282.39 290.935 282.535 291.211 282.615 291.509C282.782 292.122 282.669 292.821 282.305 293.424C281.879 294.128 281.153 294.639 280.314 294.826C280.278 294.834 280.242 294.839 280.205 294.841L279.657 294.87C280.146 295.144 280.281 295.459 280.33 295.769C280.472 296.65 280.27 297.429 279.744 298.022C278.885 298.992 277.234 299.438 274.838 299.347C272.748 299.267 260.108 304.124 252.122 307.407L227.717 318.873L227.728 319.039C227.741 319.249 227.654 319.449 227.499 319.582C211.591 347.063 194.982 369.374 179.46 384.114C165.738 397.144 153.391 403.674 143.355 403.292ZM93.7462 251.149C95.0806 280.372 99.719 309.409 107.534 337.461C117.432 372.996 123.971 396.466 138.461 401.118C148.813 404.442 162.675 398.23 178.549 383.155C193.992 368.489 210.535 346.257 226.39 318.857L226.368 318.509C226.35 318.238 226.501 317.983 226.747 317.868L251.589 306.197C253.68 305.337 271.841 297.909 274.888 298.025C276.814 298.099 278.187 297.786 278.754 297.146C279.002 296.865 279.094 296.507 279.035 296.051C278.824 295.884 277.472 295.189 269.706 295.393C269.352 295.401 269.042 295.12 269.028 294.758C269.013 294.397 269.292 294.091 269.653 294.072L280.076 293.524C280.543 293.407 280.941 293.123 281.172 292.739C281.351 292.444 281.412 292.122 281.339 291.855C281.225 291.437 280.768 291.088 280.2 290.986C279.843 290.922 279.604 290.583 279.665 290.225C279.724 289.868 280.061 289.629 280.419 289.681C281.194 289.804 281.977 289.452 282.363 288.81C282.869 287.97 282.492 287.012 282.115 286.574C281.612 285.988 280.764 285.898 280.445 285.864C277.743 285.577 275.052 285.207 272.526 284.853C272.168 284.804 271.917 284.475 271.962 284.115C272.008 283.756 272.336 283.5 272.693 283.541C275.144 283.819 276.782 283.975 277.563 284.004C279.682 284.085 280.263 281.74 280.419 280.63L250.884 274.925C249.111 274.582 247.297 274.932 245.777 275.909L224.872 289.354C224.862 289.361 224.852 289.368 224.841 289.374L220.716 292.026C209.449 300.275 198.149 308.545 186.848 316.815C175.548 325.086 164.247 333.356 152.948 341.627C152.752 341.771 152.493 341.795 152.274 341.691C152.054 341.587 151.91 341.371 151.897 341.128L146.7 242.253C138.515 230.234 123.647 224.961 111.277 229.711C97.7647 234.899 94.0638 249.762 93.7462 251.149Z" fill="#202F4B"/>
<path d="M93.9823 238.714C88.0388 248.333 88.2532 257.53 90.694 291.228C91.6886 304.964 92.5953 316.446 93.2675 324.708C100.766 325.523 110.07 325.832 120.609 324.574C138.516 322.437 152.576 316.662 161.802 311.917C161.204 291.443 158.033 274.905 155.099 263.301C148.018 235.3 140.721 229.707 137.206 227.525C136.283 226.951 124.218 219.726 110.792 224.377C100.878 227.811 95.7872 235.792 93.9823 238.714Z" fill="#5D8A9B"/>
<path d="M101.711 326.376C98.8545 326.267 96.0001 326.058 93.1541 325.749L92.2939 325.655L92.2236 324.793C91.3244 313.743 90.4582 302.476 89.6489 291.303C87.2551 258.253 86.8429 248.274 93.0909 238.163C94.7948 235.405 99.9812 227.013 110.449 223.387C124.224 218.616 136.413 225.801 137.758 226.635C142.417 229.528 149.389 236.45 156.113 263.044C160.096 278.792 162.362 295.225 162.849 311.886L162.868 312.546L162.281 312.848C149.164 319.594 135.184 323.889 120.733 325.614C114.441 326.365 108.072 326.619 101.711 326.376ZM94.2407 323.757C102.984 324.643 111.808 324.57 120.485 323.535C134.472 321.866 148.011 317.745 160.735 311.286C160.213 295.004 157.975 278.949 154.083 263.557C146.788 234.707 139.16 229.971 136.653 228.414C136.151 228.103 124.214 220.835 111.135 225.366C101.371 228.748 96.4798 236.663 94.8726 239.264C89.2347 248.389 89.2391 256.652 91.7381 291.153C92.5256 302.027 93.3673 312.991 94.2407 323.757Z" fill="#202F4B"/>
<path d="M149.344 281.642C148.001 257.706 141.42 239.388 141.353 239.206L143.321 238.489C143.388 238.674 150.074 257.263 151.435 281.524L149.344 281.642Z" fill="#202F4B"/>
<path d="M149.09 295.047L149.144 286.767L151.239 286.781L151.185 295.061L149.09 295.047Z" fill="#202F4B"/>
</g>
</g>
</g>
<defs>
<clipPath id="clip0_5325_168">
<rect width="541" height="541" fill="white"/>
</clipPath>
</defs>
</svg>
