<svg fill="none" height="627" viewBox="0 0 627 627" width="627" xmlns="http://www.w3.org/2000/svg" xmlns:xlink="http://www.w3.org/1999/xlink"><mask id="a" height="627" maskUnits="userSpaceOnUse" width="627" x="0" y="0"><path d="m627 0h-627v627h627z" fill="#fff"/></mask><mask id="b" height="401" maskUnits="userSpaceOnUse" width="534" x="56" y="48"><path d="m56.3138 48.186h533.5302v400.583h-533.5302z" fill="#fff"/></mask><mask id="c" height="407" maskUnits="userSpaceOnUse" width="219" x="4" y="39"><path d="m222.933 39.4778h-218.86922v406.3892h218.86922z" fill="#fff"/></mask><mask id="d" height="328" maskUnits="userSpaceOnUse" width="348" x="186" y="244"><path d="m186.358 244.414h347.172v327.433h-347.172z" fill="#fff"/></mask><mask id="e" height="595" maskUnits="userSpaceOnUse" width="169" x="120" y="22"><path d="m120.175 22.6416h168.361v593.9084h-168.361z" fill="#fff"/></mask><g mask="url(#a)"><g fill="#202f4b" mask="url(#b)"><path d="m494.776 50.6442h-220.253v-1.9088h220.253z"/><path d="m589.5 445.774h-532.6161v-1.909h532.6161z"/><path d="m443.294 446.618-.34-.729c-10.457-22.382-15.022-66.289-13.569-130.502 1.028-45.41 4.875-85.38 5.287-89.561-1.392-1.982-9.455-13.706-18.356-31.67-8.989-18.142-20.709-46.561-25.488-78.918-9.249-62.619 11.02-66.4195 11.887-66.5506l.294 1.8866c-.047.0081-4.78.904-8.423 9.1004-3.436 7.731-6.55 23.5981-1.869 55.2846 9.074 61.438 43.369 109.57 43.715 110.049l.211.294-.036.361c-.042.415-4.235 42.094-5.313 89.78-1.41 62.31 3.102 106.838 13.051 128.902 7.322-2.104 63.769-19.016 74.974-43.066 12.037-25.836 14.376-50.943 14.398-51.193l1.902.168c-.023.253-2.384 25.679-14.569 51.831-5.184 11.126-19.74 21.972-43.263 32.237-17.421 7.603-33.556 12.041-33.717 12.084z"/><path d="m440.382 197.413c-20.645-50.407-19.145-113.0008-19.128-113.6271l1.909.0534c-.018.6228-1.503 62.8237 18.986 112.8507z"/><path d="m474.802 221.88c-3.614-47.944-21.944-89.663-22.13-90.079l1.745-.775c.186.418 18.649 42.425 22.289 90.71z"/><path d="m490.603 403.396-1.909-.024c.147-11.545-.168-22.265-.503-33.613-1.056-35.8-2.147-72.818 11.761-137.343 9.391-43.568 6.905-77.819 3.166-98.88-4.043-22.774-10.357-35.3836-10.42-35.5081l1.702-.8643c.064.1274 6.506 12.9894 10.598 36.0384 3.769 21.23 6.277 55.746-3.18 99.617-13.86 64.297-12.771 101.197-11.719 136.883.335 11.37.651 22.109.504 33.694z"/></g><g mask="url(#c)"><g fill="#202f4b"><path d="m136.056 365.054c2.575-19.192 3.688-38.569 3.349-57.93-.339-19.367-2.118-38.704-5.293-57.812-3.162-19.028-7.699-37.827-13.562-56.204-5.912-18.531-13.177-36.627-21.7466-54.089-8.494-17.309-18.2657-33.994-29.254-49.8381-1.3798-1.9896-2.7798-3.965-4.1962-5.9286-.5971-.8276.7961-1.5885 1.3864-.7704 11.3756 15.7661 21.5398 32.3941 30.4057 49.6961 8.8247 17.221 16.3727 35.099 22.5967 53.421 6.255 18.412 11.171 37.279 14.695 56.402 3.507 19.034 5.643 38.326 6.351 57.667.711 19.424-.02 38.902-2.245 58.213-.277 2.405-.579 4.807-.901 7.207-.134 1-1.721.977-1.586-.034z"/><path d="m134.764 255.255c-6.141-5.141-13.89-7.694-21.679-9.049-8.577-1.492-17.3128-1.581-25.9425-2.641-5.0352-.619-10.0463-1.582-14.8377-3.28.2469-.462.4939-.925.7408-1.388 3.0165 2.803 6.0433 5.616 9.3742 8.046 3.26 2.379 6.8043 4.256 10.588 5.656 7.5032 2.775 15.5722 3.87 23.4832 4.775 3.919.449 8.342.736 11.807-1.514.847-.549 1.87.664 1.014 1.219-3.174 2.061-6.938 2.355-10.627 2.097-4.055-.284-8.126-.916-12.135-1.576-8.207-1.352-16.3904-3.538-23.3841-8.201-3.9985-2.666-7.5315-5.948-11.0423-9.211-.6217-.577-.1723-1.711.7402-1.387 8.6583 3.067 17.8919 3.605 26.9726 4.31 8.1756.636 16.4526 1.476 24.2096 4.303 4.205 1.533 8.201 3.671 11.64 6.55.778.651-.136 1.949-.922 1.291z"/><path d="m135.732 254.156c2.932-3.411 6.428-6.289 9.44-9.63 2.907-3.225 5.56-6.678 7.931-10.315 1.355-2.078 2.613-4.218 3.78-6.408.242-.455.967-.408 1.254-.049 3.643 4.557 3.389 11.123.886 16.155-2.821 5.673-7.921 10.078-12.866 13.883-2.819 2.17-5.907 4.043-9.42 4.806-.999.217-1.278-1.345-.283-1.561 2.871-.623 5.451-2.08 7.804-3.799 2.413-1.764 4.71-3.735 6.885-5.783 4.132-3.89 7.809-8.694 8.144-14.567.166-2.893-.538-5.829-2.367-8.117.418-.017.837-.033 1.255-.049-4.083 7.667-9.347 14.671-15.564 20.738-1.891 1.844-3.862 3.61-5.587 5.615-.66.768-1.959-.143-1.292-.919z"/><path d="m129.786 227.276c-5.901-4.493-13.154-6.521-20.286-8.114-8.072-1.804-16.18-3.455-24.2697-5.176-4.7011-.999-9.4055-2-14.1723-2.637.2244-.433.4488-.867.6732-1.301 2.2271 3.048 4.9194 5.722 8.0072 7.896 3.3022 2.325 6.9952 3.972 10.8094 5.261 3.8861 1.313 7.8791 2.287 11.8522 3.292 4.215 1.065 8.446 2.085 12.739 2.79 4.843.795 9.773 1.188 14.673.755 1.01-.089 1.307 1.469.291 1.559-8.93.789-17.755-1.009-26.38-3.147-8.0934-2.006-16.5868-3.831-23.6943-8.402-3.688-2.372-6.9235-5.443-9.5099-8.981-.3785-.518-.0532-1.399.6732-1.302 4.2892.573 8.529 1.44 12.7597 2.337 4.2577.903 8.515 1.811 12.7719 2.716 4.0754.867 8.1554 1.715 12.2254 2.608 3.638.797 7.271 1.664 10.795 2.884 3.9 1.35 7.663 3.157 10.956 5.665.81.617-.098 1.918-.914 1.297z"/><path d="m132.615 226.81c5.172-9.991 12.243-18.982 20.714-26.384 2.421-2.117 4.959-4.097 7.594-5.939.452-.317 1.208-.192 1.294.452.458 3.416-.315 6.793-1.546 9.972-1.18 3.047-2.655 6.008-4.227 8.871-2.999 5.462-6.819 10.614-11.947 14.251-2.715 1.926-5.72 3.387-8.956 4.191-.993.246-1.289-1.312-.302-1.558 11.83-2.938 18.906-14.434 23.378-24.915 1.411-3.308 2.53-6.877 2.042-10.511.431.151.863.301 1.294.452-9.177 6.416-17.104 14.548-23.272 23.894-1.731 2.623-3.318 5.338-4.763 8.129-.199.383-.782.417-1.104.199-.392-.265-.395-.726-.199-1.104z"/><path d="m124.991 202.436c-4.457-1.409-8.258-4.181-12.199-6.6-3.976-2.441-8.154-4.535-12.454-6.344-8.6284-3.63-17.6868-6.126-26.8008-8.197-5.1646-1.172-10.3585-2.208-15.553-3.238.2183-.437.4366-.874.6548-1.311 6.5613 6.929 14.2475 12.753 22.6499 17.271 8.3883 4.51 17.5247 7.715 26.9061 9.368 2.659.469 5.342.829 8.034 1.036 2.759.212 5.619.197 8.179-.983.928-.428 1.63.994.702 1.422-2.325 1.072-4.875 1.318-7.409 1.233-2.459-.083-4.924-.393-7.356-.757-4.853-.727-9.65-1.848-14.3221-3.348-9.3436-2.999-18.2202-7.502-26.1531-13.278-4.4649-3.251-8.6313-6.914-12.4286-10.924-.4382-.463-.0312-1.447.6547-1.311 9.2783 1.839 18.5699 3.693 27.6712 6.291 8.9815 2.564 17.7859 5.885 25.8969 10.557 4.555 2.624 8.785 6.014 13.855 7.617.973.307.446 1.804-.528 1.496z"/><path d="m122.268 201.583c3.825-6.45 8.019-12.677 12.569-18.637 2.168-2.84 4.401-5.639 6.749-8.333 2.085-2.391 4.286-4.7 6.778-6.673 2.774-2.198 5.881-3.938 9.323-4.825.581-.149 1.12.483.913 1.035-1.596 4.238-3.191 8.477-4.787 12.715-1.462 3.884-2.86 7.803-4.524 11.607-3.014 6.893-7.199 13.523-14.002 17.183-3.47 1.867-7.464 2.81-11.392 2.232-1.003-.148-.913-1.732.099-1.583 6.874 1.011 13.508-2.854 17.753-8.038 4.94-6.035 7.439-13.611 10.148-20.807 1.734-4.608 3.47-9.217 5.204-13.825.304.344.609.689.913 1.034-6.045 1.558-10.79 5.946-14.823 10.505-4.694 5.306-8.975 11.024-12.968 16.871-2.324 3.402-4.535 6.88-6.636 10.423-.521.879-1.837-.007-1.317-.884z"/><path d="m113.411 176.309c-12.282-9.952-29.0806-8.999-43.864-11.07-4.5486-.638-9.0686-1.57-13.3937-3.14.2821-.426.5642-.853.8463-1.279 6.0826 5.302 13.1164 9.502 20.6223 12.449 7.5117 2.95 15.4945 4.662 23.5591 5.012 4.566.198 9.139-.047 13.656-.745 1.006-.155 1.342 1.396.333 1.552-8.189 1.265-16.5657 1.087-24.7012-.47-8.1711-1.563-16.0618-4.463-23.2766-8.611-4.0529-2.33-7.8531-5.061-11.3767-8.132-.6153-.536.1474-1.532.8463-1.279 7.8483 2.85 16.2101 3.514 24.4597 4.279 7.537.698 15.1692 1.539 22.3285 4.138 3.898 1.414 7.611 3.359 10.839 5.975.785.637-.083 1.965-.878 1.321z"/><path d="m115.234 177.157c5.045-13.76 8.725-28.02 10.924-42.511.618-4.077 1.119-8.171 1.509-12.276.06-.635.93-1.065 1.379-.494 5.188 6.599 7.651 15.052 7.27 23.405-.19 4.158-1.081 8.31-2.696 12.15-1.735 4.129-4.303 7.779-7.433 10.97-3.834 3.909-5.263 5.36-9.861 8.296-.862.551-1.586-.861-.732-1.407 7.535-4.813 11.993-8.764 15.933-17.043 3.43-7.206 4.117-15.611 2.167-23.328-1.096-4.338-3.055-8.457-5.823-11.978.46-.165.92-.328 1.38-.493-1.393 14.689-4.252 29.24-8.54 43.358-1.21 3.986-2.536 7.936-3.97 11.847-.35.955-1.86.466-1.507-.496z"/><path d="m104.032 148.143c-7.811-4.118-15.9027-7.691-24.2078-10.689-8.2542-2.98-16.7109-5.397-25.2938-7.226-4.8754-1.039-9.79-1.882-14.7319-2.534.1515-.487.3025-.974.4541-1.461 8.1279 5.491 16.6216 10.436 25.4156 14.782 4.302 2.127 8.671 4.154 13.1306 5.928 4.139 1.647 8.44 3.06 12.8673 3.664 4.8503.663 9.8329.299 14.2539-1.938.911-.46 1.661.937.749 1.398-8.2579 4.178-17.842 2.275-26.137-.765-4.5656-1.673-9.0078-3.714-13.3898-5.816-4.5143-2.164-8.9538-4.486-13.3082-6.957-4.9257-2.796-9.739-5.787-14.4319-8.957-.6036-.408-.3691-1.571.4547-1.462 8.8508 1.168 17.6213 2.936 26.2277 5.31 8.5765 2.366 16.9889 5.325 25.1566 8.853 4.6291 1.999 9.1799 4.179 13.6409 6.531.903.476.05 1.813-.85 1.339z"/><path d="m102.005 146.387c2.891-15.449 9.409-29.891 16.578-43.776 2.046-3.9629 4.152-7.8943 6.26-11.824.444-.8265 1.633-.1881 1.433.6488-2.117 8.8582-1.124 18.1102-3.054 27.0082-.96 4.426-2.434 8.716-3.926 12.984-1.379 3.946-2.743 8.001-5.142 11.468-2.332 3.369-5.755 6.192-9.882 6.901-1.002.172-1.388-1.367-.382-1.54 8.102-1.392 11.344-10.02 13.722-16.816 1.452-4.15 2.903-8.313 3.9-12.601 1-4.303 1.338-8.681 1.579-13.082.271-4.956.508-9.9369 1.667-14.7833.478.2162.956.4319 1.433.6482-7.378 13.7511-14.81 27.6251-19.492 42.5741-1.301 4.153-2.376 8.374-3.177 12.652-.187 1.001-1.704.534-1.517-.462z"/><path d="m92.1235 121.152c-2.4345-11.244-4.9545-22.8522-11.2233-32.6835-3.2242-5.0563-7.4681-9.32-11.9557-13.2573-4.8212-4.2298-9.8326-8.2504-14.7675-12.3456-5.8552-4.8591-11.7116-9.7182-17.5668-14.5773.4216-.3119.8438-.6237 1.2655-.9355 3.3274 6.3539 6.6555 12.7078 9.9829 19.0617 2.909 5.555 5.7751 11.1352 8.7822 16.6382 5.2906 9.6828 11.1392 19.2793 19.0091 27.1073 4.3387 4.316 9.2883 7.98 14.8199 10.621.9195.439.0862 1.79-.8286 1.353-10.0386-4.794-17.9171-12.881-24.2974-21.844-6.8193-9.5805-12.0897-20.1554-17.5318-30.5463-3.7738-7.2062-7.5482-14.4125-11.3221-21.6188-.4413-.8429.5963-1.4899 1.2649-.9349 5.2803 4.3816 10.56 8.7637 15.8403 13.1452 5.0605 4.1994 10.1721 8.344 15.1636 12.625 4.5681 3.918 8.9472 8.1015 12.4058 13.0552 3.3169 4.7504 5.7068 10.0816 7.5589 15.5546 2.1204 6.264 3.5408 12.736 4.9383 19.192.2157.997-1.3219 1.388-1.5382.39z"/><path d="m150.87 359.605c4.579-17.5 8.315-35.211 11.331-53.046 2.998-17.722 5.299-35.559 7.071-53.444 1.776-17.935 3.02-35.92 3.904-53.921.886-18.042 1.41-36.1 1.741-54.16.331-18.053.469-36.109.581-54.1638.014-2.2419.027-4.4833.041-6.7252.006-1.0215 1.588-.9074 1.582.1101-.108 18.1399-.223 36.2799-.511 54.4169-.289 18.153-.752 36.305-1.562 54.443-.804 18.009-1.948 36.007-3.606 53.959-1.661 17.991-3.837 35.936-6.7 53.776-2.844 17.727-6.365 35.35-10.71 52.771-.542 2.174-1.099 4.344-1.666 6.511-.258.986-1.754.457-1.496-.527z"/></g><path d="m169.023 266.943-2.93-.463c-3.693.233-7.312-1.02-10.719-2.462-11.154-4.724-21.343-11.713-29.766-20.418 12.223 3.027 23.915 8.181 34.396 15.159 3.402 2.264 6.744 4.789 9.019 8.184z" fill="#fff"/><path d="m168.864 268.112c-.774-.122-1.547-.244-2.32-.366-1.185-.188-2.444-.046-3.79-.236-3.772-.536-7.361-2.119-10.787-3.717-6.48-3.023-12.618-6.81-18.226-11.247-3.207-2.539-6.225-5.298-9.072-8.234-.69-.71.142-2.12 1.099-1.881 13.034 3.244 25.633 8.778 36.625 16.534 2.866 2.023 5.586 4.343 7.57 7.265.851 1.254-1.024 2.686-1.879 1.427-1.71-2.519-3.974-4.528-6.419-6.313-2.522-1.842-5.181-3.516-7.883-5.081-5.656-3.279-11.607-6.049-17.755-8.273-3.469-1.254-7-2.331-10.579-3.222.366-.627.733-1.255 1.1-1.882 4.865 5.016 10.344 9.446 16.236 13.2 2.922 1.86 5.954 3.541 9.074 5.046 3.225 1.555 6.599 3.144 10.128 3.853.998.201 2.019.337 3.039.351.557.008 1.089-.046 1.638.041.841.132 1.68.265 2.521.397 1.497.237 1.182 2.575-.32 2.338z" fill="#202f4b"/><path d="m185.915 254.322c3.02-.772 6.176-.768 9.292-.758 7.128.021 14.254.041 21.382.062-11.535 8.239-25.287 13.344-39.404 14.627l-7.831-1.973c4.751-5.011 9.872-10.246 16.561-11.958z" fill="#fff"/><path d="m185.719 253.159c2.419-.602 4.906-.734 7.39-.764 2.587-.031 5.175.004 7.762.012 5.28.015 10.559.031 15.838.046 1.013.003 1.423 1.52.624 2.089-6.795 4.839-14.311 8.644-22.25 11.212-3.981 1.288-8.051 2.294-12.182 2.964-1.026.166-2.054.313-3.086.439-.943.116-2.134.424-3.061.195-.615-.151-1.227-.309-1.841-.464-1.996-.503-3.991-1.005-5.987-1.508-.686-.173-1.011-1.281-.524-1.795 4.924-5.192 10.173-10.556 17.317-12.426.617-.161 1.261.38 1.36.968.113.676-.35 1.198-.968 1.359-6.465 1.693-11.356 6.801-15.805 11.491-.174-.598-.349-1.197-.523-1.796 2.61.658 5.22 1.315 7.83 1.973-.208-.022-.416-.043-.624-.064 10.855-1.003 21.437-4.232 31.005-9.457 2.714-1.482 5.331-3.127 7.85-4.921.208.696.416 1.392.624 2.088-5.191-.015-10.383-.03-15.574-.046-2.511-.007-5.022-.032-7.532-.017-2.439.015-4.876.158-7.251.749-1.476.368-1.856-1.963-.392-2.327z" fill="#202f4b"/><path d="m171.363 241.124-2.943-.384c-3.685.331-7.336-.824-10.781-2.174-11.277-4.423-21.65-11.135-30.303-19.611 12.299 2.698 24.126 7.535 34.791 14.229 3.461 2.173 6.87 4.606 9.236 7.94z" fill="#fff"/><path d="m171.235 242.296c-.776-.101-1.553-.202-2.329-.303-1.189-.156-2.444.02-3.795-.134-3.785-.434-7.415-1.92-10.883-3.426-6.559-2.848-12.797-6.469-18.521-10.754-3.275-2.451-6.365-5.128-9.291-7.986-.708-.692.085-2.123 1.049-1.911 13.116 2.893 25.859 8.087 37.056 15.545 2.919 1.945 5.7 4.191 7.762 7.059.884 1.23-.952 2.712-1.84 1.476-1.777-2.471-4.094-4.419-6.586-6.138-2.571-1.773-5.274-3.375-8.016-4.867-5.743-3.126-11.766-5.735-17.972-7.793-3.501-1.16-7.059-2.142-10.662-2.937.35-.637.7-1.273 1.049-1.91 4.999 4.883 10.595 9.165 16.586 12.758 2.97 1.782 6.047 3.381 9.205 4.801 3.266 1.467 6.682 2.966 10.228 3.579 1.004.174 2.028.283 3.048.27.557-.007 1.087-.076 1.639-.004.843.11 1.686.22 2.53.33 1.503.197 1.251 2.542-.257 2.345z" fill="#202f4b"/><path d="m188.382 228.719c3.028-.739 6.184-.7 9.3-.657 7.127.1 14.253.199 21.379.298-11.624 8.112-25.432 13.065-39.562 14.193l-7.808-2.058c4.806-4.959 9.983-10.138 16.691-11.776z" fill="#fff"/><path d="m188.199 227.553c2.426-.576 4.914-.681 7.398-.683 2.587-.002 5.175.061 7.761.097 5.28.073 10.558.147 15.837.22 1.013.015 1.406 1.536.601 2.096-6.848 4.764-14.405 8.487-22.372 10.967-3.995 1.244-8.076 2.205-12.214 2.83-1.028.155-2.057.29-3.09.405-.945.105-2.139.4-3.064.161-.612-.157-1.223-.322-1.835-.484-1.99-.524-3.98-1.049-5.97-1.574-.685-.18-.997-1.292-.504-1.801 4.98-5.136 10.288-10.442 17.452-12.234.618-.155 1.257.394 1.349.983.106.677-.363 1.193-.983 1.348-6.483 1.622-11.43 6.676-15.929 11.317-.169-.601-.336-1.201-.505-1.802 2.603.687 5.206 1.373 7.808 2.059-.207-.024-.415-.048-.623-.071 10.866-.883 21.482-3.996 31.108-9.116 2.73-1.452 5.365-3.068 7.903-4.834.2.698.401 1.396.601 2.095-5.191-.073-10.382-.145-15.573-.217-2.51-.035-5.021-.088-7.531-.1-2.439-.012-4.878.104-7.259.669-1.479.351-1.834-1.983-.366-2.331z" fill="#202f4b"/><path d="m173.826 213.221-2.938-.42c-3.689.288-7.326-.911-10.754-2.303-11.223-4.557-21.515-11.393-30.066-19.972 12.267 2.845 24.034 7.824 34.618 14.645 3.435 2.214 6.815 4.688 9.14 8.05z" fill="#fff"/><path d="m173.683 214.392c-.775-.111-1.55-.221-2.324-.332-1.188-.17-2.445-.009-3.794-.179-3.779-.479-7.391-2.009-10.841-3.556-6.524-2.927-12.718-6.622-18.391-10.975-3.245-2.491-6.303-5.205-9.194-8.098-.7-.7.111-2.121 1.071-1.897 13.081 3.049 25.761 8.396 36.867 15.988 2.896 1.979 5.65 4.259 7.677 7.151.87 1.241-.984 2.7-1.857 1.454-1.747-2.492-4.041-4.468-6.512-6.216-2.549-1.805-5.233-3.439-7.957-4.964-5.705-3.194-11.696-5.875-17.877-8.007-3.487-1.203-7.033-2.227-10.626-3.065.357-.632.715-1.265 1.072-1.898 4.939 4.943 10.484 9.292 16.431 12.957 2.949 1.817 6.006 3.453 9.147 4.91 3.248 1.507 6.646 3.046 10.185 3.703 1.001.185 2.024.306 3.043.306.558-.001 1.089-.063 1.64.016.842.12 1.683.24 2.526.36 1.5.214 1.22 2.557-.286 2.342z" fill="#202f4b"/><path d="m191.037 201.074c3.039-.693 6.193-.606 9.309-.515l21.372.624c-11.747 7.933-25.629 12.675-39.774 13.587l-7.776-2.177c4.881-4.885 10.137-9.984 16.869-11.519z" fill="#fff"/><path d="m190.871 199.905c2.435-.539 4.924-.606 7.408-.57 2.587.037 5.173.14 7.759.215l15.831.462c1.013.03 1.382 1.557.569 2.105-6.92 4.659-14.532 8.266-22.536 10.625-4.014 1.183-8.109 2.081-12.256 2.642-1.03.14-2.062.259-3.096.359-.946.09-2.144.367-3.066.114-.61-.167-1.219-.341-1.828-.512-1.982-.555-3.963-1.11-5.945-1.665-.682-.19-.978-1.307-.477-1.808 5.058-5.061 10.447-10.285 17.637-11.967.621-.145 1.251.413 1.334 1.003.096.679-.381 1.188-1.003 1.334-6.508 1.522-11.531 6.5-16.101 11.072-.159-.603-.317-1.206-.476-1.809 2.592.726 5.184 1.451 7.776 2.177-.208-.027-.415-.054-.622-.08 10.878-.718 21.54-3.668 31.242-8.64 2.753-1.411 5.412-2.986 7.977-4.713.189.701.379 1.402.569 2.103-5.19-.151-10.379-.303-15.568-.454-2.51-.074-5.019-.165-7.529-.215-2.438-.049-4.879.03-7.268.559-1.485.328-1.804-2.012-.331-2.337z" fill="#202f4b"/><path d="m161.623 181.821c-7.65-2.593-13.629-8.512-19.319-14.246-3.245-3.269-6.538-6.603-8.688-10.677 14.907 5.917 28.91 14.104 41.378 24.192l-2.42.37c-3.235 1.938-7.38 1.572-10.951.361z" fill="#fff"/><path d="m161.161 182.907c-4.735-1.628-8.915-4.51-12.666-7.777-1.923-1.675-3.751-3.454-5.555-5.257-1.805-1.803-3.624-3.602-5.337-5.494-1.95-2.154-3.704-4.458-5.075-7.027-.51-.955.667-1.891 1.551-1.539 11.697 4.654 22.844 10.687 33.141 17.93 2.904 2.043 5.737 4.185 8.5 6.416.794.641.442 1.945-.567 2.1-.807.123-1.613.247-2.42.37.185-.077.37-.154.556-.231-3.752 2.188-8.139 1.84-12.128.509-.605-.202-.858-.996-.623-1.548.265-.626.941-.826 1.547-.623 2.513.838 5.355 1.284 7.949.548.978-.278 1.811-.906 2.81-1.059.663-.101 1.327-.203 1.991-.305-.189.7-.378 1.4-.567 2.1-9.67-7.812-20.236-14.486-31.461-19.828-3.17-1.509-6.391-2.911-9.653-4.208.517-.514 1.034-1.026 1.551-1.54 2.294 4.297 5.88 7.753 9.284 11.167 3.421 3.43 6.931 6.832 10.966 9.542 2.22 1.49 4.6 2.713 7.13 3.583 1.435.493.508 2.663-.924 2.171z" fill="#202f4b"/><path d="m174.904 155.713c.186-.011.371-.023.557-.035-.107.094-.216.185-.322.28l-.031-.004c.146.171.296.338.437.514l-1.268.333c-4.688 1.245-9.614-.667-13.885-2.965-10.982-5.909-20.412-14.674-27.108-25.195 11.919 5.532 23.264 12.303 33.792 20.167 2.794 2.086 5.547 4.277 7.828 6.905z" fill="#fff"/><path d="m174.75 154.544c.185-.012.371-.024.557-.036 1.194-.075 1.771 1.325.865 2.111-.366.318-.708.572-1.226.503.368-.626.736-1.253 1.103-1.879.147.17.294.341.437.514.628.755.008 1.672-.787 1.88-1.162.305-2.308.619-3.514.698-1.973.131-3.914-.159-5.809-.695-3.614-1.021-6.941-2.891-10.129-4.837-6.127-3.742-11.676-8.392-16.488-13.718-2.738-3.031-5.218-6.29-7.416-9.733-.596-.932.265-2.326 1.408-1.795 12.006 5.582 23.447 12.398 34.055 20.324 2.875 2.148 5.667 4.412 8.038 7.121 1.002 1.144-.885 2.56-1.881 1.423-2.052-2.344-4.474-4.317-6.951-6.19-2.58-1.951-5.215-3.829-7.893-5.641-5.325-3.603-10.83-6.932-16.496-9.97-3.221-1.727-6.492-3.359-9.806-4.9.469-.598.938-1.197 1.408-1.795 3.756 5.882 8.336 11.217 13.607 15.793 2.588 2.246 5.332 4.314 8.208 6.178 2.988 1.938 6.141 3.774 9.495 5 1.869.684 3.887 1.173 5.89 1.118 1.366-.038 2.655-.376 3.966-.72-.262.627-.525 1.254-.787 1.881-.143-.173-.29-.343-.437-.514-.683-.796.136-2.009 1.104-1.88.01.002.02.003.03.005-.291.075-.582.151-.873.227.107-.094.213-.187.321-.28.289.703.577 1.407.866 2.111-.186.011-.371.023-.557.035-1.51.095-1.825-2.244-.308-2.339z" fill="#202f4b"/><path d="m212.005 166.15c-2.662 5.919-5.532 12.103-10.749 15.963-7.503 5.552-18.026 4.859-26.828 1.755l.684-2.452c10.684-8.099 26.44-6.87 36.893-15.266z" fill="#fff"/><path d="m213.089 166.62c-2.711 6.021-5.665 12.398-11.122 16.435-5.071 3.752-11.534 4.785-17.7 4.222-3.517-.321-6.978-1.159-10.308-2.325-.432-.152-.83-.781-.7-1.247.211-.753.421-1.506.632-2.259.17-.611.459-.941.971-1.311.664-.481 1.35-.93 2.055-1.35 2.588-1.544 5.361-2.713 8.217-3.664 5.784-1.927 11.818-3.034 17.53-5.189 3.093-1.167 6.039-2.656 8.632-4.723 1.19-.948 2.607.938 1.42 1.884-8.41 6.702-19.573 7.352-29.286 11.147-2.703 1.055-5.284 2.37-7.607 4.118.152-.259.305-.519.458-.778-.228.817-.457 1.635-.685 2.453-.233-.416-.467-.831-.7-1.247 5.434 1.903 11.38 2.88 17.105 1.912 2.737-.462 5.415-1.422 7.736-2.959 2.568-1.702 4.605-4.018 6.294-6.574 1.964-2.972 3.434-6.243 4.892-9.482.622-1.381 2.791-.453 2.166.937z" fill="#202f4b"/><path d="m215.336 143.195c-2.788 2.68-5.576 5.361-8.363 8.041-1.435 1.38-2.946 2.805-4.85 3.383-1.08.328-2.224.363-3.352.394-7.785.219-15.569.438-23.353.656 11.055-9.05 25.676-13.626 39.918-12.474z" fill="#fff"/><path d="m216.237 143.956c-2.218 2.132-4.435 4.265-6.653 6.397-1.892 1.82-3.738 3.909-6.161 5.03-1.27.589-2.67.741-4.054.79-1.473.052-2.946.084-4.42.125-3.061.086-6.123.172-9.184.258-3.411.096-6.822.191-10.234.287-1.199.034-1.717-1.383-.79-2.139 8.83-7.199 19.867-11.624 31.208-12.638 3.189-.286 6.399-.285 9.59-.033.636.05 1.062.779.959 1.365-.118.678-.727 1.009-1.365.959-10.83-.855-21.944 1.671-31.385 7.036-2.692 1.53-5.251 3.284-7.651 5.241-.264-.713-.528-1.426-.792-2.139 5.861-.165 11.72-.33 17.581-.494 1.487-.042 2.973-.083 4.461-.125 1.334-.038 2.738.024 4.047-.278 2.371-.544 4.14-2.606 5.819-4.22 2.408-2.315 4.815-4.63 7.223-6.945.458-.441 1.141-.58 1.662-.139.448.379.601 1.219.139 1.662z" fill="#202f4b"/><path d="m218.081 113.208c-3.948 3.112-8.008 6.082-12.169 8.904-6.086 4.126-12.708 8.04-20.041 8.567-3.368.242-6.724-.247-10.046-.923l.102.184c-5.096.326-10.284-1.02-14.578-3.782-2.445-1.572-4.583-3.573-6.63-5.637-8.642-8.715-16.053-19.104-18.983-31.0224 2.793 1.5763 5.587 3.1521 8.381 4.7284 4.009 2.262 8.066 4.5586 11.38 7.753 2.402 2.316 4.356 5.048 6.294 7.764 4.385 6.14 8.769 12.28 13.153 18.42l.48.867c11.983-11.447 28.681-17.799 45.242-17.225-.926.162-1.815.796-2.585 1.402z" fill="#fff"/><path d="m218.763 114.17c-5.045 3.971-10.249 7.809-15.698 11.211-4.941 3.085-10.336 5.754-16.2 6.392-3.764.41-7.551-.11-11.239-.855.387-.615.775-1.23 1.162-1.844.034.061.069.123.102.184.402.725.123 1.798-.845 1.855-4.295.254-8.628-.557-12.52-2.401-3.94-1.867-7.153-4.812-10.169-7.902-5.469-5.604-10.361-11.791-14.025-18.733-2.036-3.8571-3.648-7.9281-4.699-12.1638-.221-.8889.61-2.0443 1.604-1.4831 3.452 1.9468 6.915 3.8751 10.352 5.8467 3.211 1.842 6.409 3.7998 9.148 6.3112 2.718 2.491 4.886 5.487 7.019 8.474 2.345 3.284 4.69 6.568 7.035 9.852 1.326 1.857 2.651 3.713 3.976 5.57.907 1.269 1.866 2.499 2.621 3.865-.622-.026-1.244-.051-1.866-.077 9.597-9.135 21.98-15.11 35.089-17.027 3.62-.529 7.283-.734 10.939-.613 1.51.05 1.744 2.031.235 2.348-.758.159-1.428.727-2.021 1.19-1.199.937-2.558-.992-1.363-1.925.96-.749 1.946-1.36 3.149-1.613.079.783.157 1.565.235 2.348-12.722-.419-25.472 3.194-36.102 10.195-2.969 1.955-5.779 4.162-8.354 6.614-.488.464-1.461.656-1.867-.077-.629-1.138-1.406-2.165-2.161-3.223-1.173-1.642-2.345-3.284-3.518-4.926-2.294-3.213-4.588-6.426-6.882-9.639-2.091-2.928-4.118-5.968-6.653-8.538-2.556-2.591-5.601-4.6071-8.73-6.4351-3.73-2.1795-7.519-4.2618-11.282-6.3844.535-.4945 1.07-.9885 1.605-1.483 1.795 7.2307 5.227 13.9045 9.573 19.9255 2.177 3.016 4.568 5.882 7.117 8.592 2.747 2.922 5.641 5.933 9.123 7.983 3.965 2.332 8.565 3.453 13.157 3.182-.282.618-.564 1.237-.846 1.855-.034-.061-.067-.123-.101-.185-.46-.832.07-2.064 1.161-1.844 3.157.638 6.374 1.135 9.604.921 2.791-.185 5.497-.888 8.094-1.912 5.387-2.126 10.216-5.489 14.918-8.814 2.977-2.105 5.896-4.288 8.76-6.542 1.196-.941 2.554.988 1.363 1.925z" fill="#202f4b"/><path d="m174.219 99.7746c-3.658-5.6239-3.542-12.8241-3.105-19.5181.766-11.7172 2.133-23.3949 4.093-34.9725 5.694 9.6102 11.585 19.9916 10.867 31.1394-.635 9.8534-6.345 18.5537-9.535 27.8976z" fill="#fff"/><path d="m173.251 100.448c-3.574-5.5697-3.74-12.3343-3.398-18.7341.414-7.7598 1.198-15.5129 2.192-23.2186.578-4.4861 1.247-8.9595 2-13.4192.162-.9566 1.597-1.3653 2.129-.4669 4.047 6.8323 8.173 13.8808 10.074 21.6645.956 3.9135 1.319 7.9234.842 11.9346-.525 4.416-2.016 8.6623-3.713 12.7496-1.921 4.626-4.142 9.1291-5.773 13.8721-.148.428-.701.683-1.114.659-.512-.03-.833-.32-1.058-.761-.774-1.516-1.547-3.032-2.321-4.547-.289-.5679.154-1.3133.701-1.5144.658-.2421 1.224.1315 1.514.7006.774 1.5158 1.547 3.0318 2.321 4.5468-.724-.033-1.448-.068-2.172-.102 2.784-8.0977 7.461-15.5973 9.004-24.1013 1.4-7.722-.686-15.2817-3.953-22.2588-1.854-3.9584-4.062-7.7366-6.287-11.4943.709-.1556 1.419-.3107 2.128-.4664-1.296 7.6764-2.337 15.3942-3.113 23.1407-.386 3.8511-.707 7.7091-.962 11.5712-.206 3.1213-.341 6.2589-.06 9.3801.302 3.3471 1.123 6.6628 2.955 9.5166.819 1.2762-1.114 2.6292-1.936 1.3482z" fill="#202f4b"/><path d="m173.392 355.45-61.854-.508-.733 89.343 61.853.508z" fill="#fff"/><path d="m173.43 445.578.746-90.9-63.409-.521-.747 90.9zm-.823-89.357-.72 87.788-60.297-.495.72-87.788z" fill="#202f4b"/><path d="m111.202 397.126h61.834c.701 0 1.269-.568 1.269-1.269 0-.7-.568-1.268-1.269-1.268h-61.834c-.7 0-1.268.568-1.268 1.268 0 .701.568 1.269 1.268 1.269z" fill="#202f4b"/><path d="m111.202 379.151h61.834c.701 0 1.269-.568 1.269-1.269 0-.7-.568-1.268-1.269-1.268h-61.834c-.7 0-1.268.568-1.268 1.268 0 .701.568 1.269 1.268 1.269z" fill="#202f4b"/><path d="m111.202 429.904h61.834c.701 0 1.269-.568 1.269-1.268 0-.701-.568-1.269-1.269-1.269h-61.834c-.7 0-1.268.568-1.268 1.269 0 .7.568 1.268 1.268 1.268z" fill="#202f4b"/></g><g mask="url(#d)"><path d="m313.848 271.675-1.545 124.996-48.42 11.549c-19.349-3.208-38.694-6.415-58.043-9.623.677-38.69 1.353-77.382 2.027-116.075 3.04-.353 7.322-1.272 11.567-3.921 5.957-3.719 8.078-8.5 11.067-12.899 1.963-2.889 11.209-16.499 25.74-19.514 11.293-2.345 23.482 2.187 30.567 8.187.11.093.203.171.52.448 7.729 6.753 9.303 14.376 17.269 15.802 0 0 .103.017 9.251 1.05z" fill="#fff"/><path d="m263.876 408.845c-.032-.001-.064-.003-.095-.008l-58.043-9.624c-.306-.051-.528-.317-.523-.626.677-38.69 1.354-77.384 2.028-116.076.005-.313.241-.573.552-.609 4.217-.491 8.021-1.779 11.308-3.831 4.66-2.908 6.951-6.545 9.165-10.063.551-.875 1.12-1.779 1.717-2.657 7.319-10.773 16.6-17.796 26.13-19.774 11.8-2.448 24.121 2.415 31.097 8.322.111.093.204.173.526.454 2.988 2.611 5.079 5.36 6.925 7.787 2.987 3.927 5.348 7.03 10.044 7.871.009 0 .589.071 9.212 1.044.318.036.558.307.554.627l-1.545 124.997c-.004.286-.202.533-.48.599l-48.42 11.549c-.05.013-.101.018-.152.018zm-57.402-10.775 57.387 9.514 47.824-11.407 1.532-123.945c-3.453-.39-8.623-.974-8.721-.991-5.184-.928-7.799-4.365-10.826-8.346-1.81-2.379-3.861-5.075-6.753-7.602-.312-.272-.403-.35-.511-.441-6.745-5.712-18.649-10.417-30.038-8.053-9.211 1.912-18.214 8.749-25.35 19.254-.585.859-1.148 1.755-1.693 2.621-2.29 3.636-4.658 7.396-9.56 10.456-3.303 2.062-7.097 3.387-11.283 3.944-.667 38.334-1.338 76.665-2.008 114.996z" fill="#202f4b"/><path d="m514.146 509.182 3.987-108.653-10.764 4.903-1.373 111.017c-12.888 10.89-32.56 23.275-46.005 29.112-10.803 4.691-20.502 6.491-31.562 7.077l3.089-122.959-12.905-.16.678 123.36c-2.036.009-4.13-.003-6.295-.029-18.255-.226-17.397 6.711-17.397 6.711-1.616 3.442-.109 8.812-.109 8.812s6.253 3.54 9.734 2.009c3.482-1.531 7.294-4.316 7.294-4.316 20.428 2.771 46.004-3.524 66.575-12.399 20.572-8.875 47.357-36.56 47.357-36.56 7.255-1.17 5.04-.253 6.046-5.277.93-4.64-7.516-11.006-18.35-2.648z" fill="#fff"/><path d="m403.059 571.387c-3.542-.044-7.662-2.349-7.876-2.47-.144-.081-.249-.216-.294-.375-.063-.225-1.512-5.496.081-9.105-.001-.478.123-1.731 1.308-3.056 1.762-1.968 6.093-4.287 16.726-4.155 2.067.025 3.926.035 5.659.031l-.674-122.735c-.001-.167.066-.328.184-.446.119-.118.281-.183.448-.181l12.905.159c.166.003.326.072.442.192.115.12.178.282.174.448l-3.072 122.283c11.782-.682 20.99-2.784 30.672-6.988 13.421-5.828 32.985-18.193 45.634-28.833l1.369-110.731c.003-.243.145-.46.365-.56l10.764-4.904c.196-.09.427-.071.606.049.18.121.285.326.277.542l-3.94 107.362c7.934-5.547 13.502-2.933 15.069-1.959 2.39 1.484 3.655 3.839 3.223 5.998-.225 1.12-.284 1.945-.327 2.548-.166 2.295-.628 2.365-4.226 2.911-.521.079-1.118.169-1.803.279-2.171 2.216-27.746 28.066-47.412 36.55-23.656 10.205-48.548 14.863-66.66 12.476-.848.605-4.122 2.881-7.205 4.237-.729.32-1.556.443-2.417.433zm-7.032-3.433c1.129.597 6.145 3.09 8.946 1.857 3.378-1.485 7.139-4.222 7.176-4.249.131-.095.292-.135.453-.115 17.916 2.43 42.681-2.187 66.244-12.353 20.224-8.725 46.889-36.145 47.156-36.421.093-.097.215-.161.349-.182.775-.125 1.443-.226 2.018-.314 1.588-.24 2.546-.386 2.897-.608.168-.106.206-.269.27-1.158.046-.636.109-1.506.348-2.703.324-1.619-.743-3.504-2.656-4.693-1.462-.908-6.845-3.401-14.701 2.661-.193.147-.452.171-.667.061-.215-.111-.347-.336-.338-.578l3.95-107.643-9.483 4.32-1.368 110.621c-.002.181-.083.352-.221.469-12.721 10.748-32.566 23.305-46.16 29.207-10.011 4.347-19.515 6.479-31.778 7.128-.174.009-.343-.055-.468-.176s-.193-.289-.189-.463l3.073-122.327-11.637-.144.674 122.724c.001.166-.064.325-.181.443-.116.118-.275.184-.44.185-1.919.009-3.981 0-6.305-.029-10.085-.124-14.122 1.936-15.732 3.687-1.129 1.227-1.041 2.286-1.037 2.331.011.112-.008.232-.056.334-1.31 2.79-.399 7.056-.137 8.128z" fill="#202f4b"/><path d="m313.189 470.63c-.021.016-.043.032-.064.048l2.493-106.493-10.39-.129.347 111.813c-14.305 9.074-34.823 18.693-48.797 22.95-13.325 4.059-24.828 4.587-38.566 3.671l2.827-120.745-11.174-.138.373 120.231c-.994-.093-1.999-.19-3.021-.292-18.995-1.903-18.684 4.896-18.684 4.896-1.973 3.186-.854 8.528-.854 8.528s6.215 4.006 9.97 2.844 7.959-3.51 7.959-3.51c21.044 4.569 48.213.83 70.385-5.87 22.173-6.701 52.398-31.052 52.398-31.052 7.655-.464 5.27.221 6.741-4.554 1.47-4.775-8.338-12.525-21.943-2.198z" fill="#fff"/><path d="m196.039 518.646c-3.831-.047-8.471-3.005-8.698-3.152-.14-.09-.238-.233-.272-.397-.048-.225-1.117-5.475.849-8.843.041-.458.266-1.57 1.439-2.682 1.935-1.833 6.617-3.781 17.923-2.648.787.079 1.563.155 2.332.228l-.37-119.543c-.001-.167.066-.328.184-.446.119-.117.28-.182.447-.18l11.174.138c.167.002.326.071.441.19.116.12.179.283.175.449l-2.812 120.146c15.062.957 26.036-.118 37.745-3.685 13.924-4.242 34.199-13.763 48.354-22.695l-.346-111.468c0-.167.067-.328.185-.446.119-.117.28-.183.447-.18l10.39.128c.167.002.326.071.441.191.116.12.179.281.175.448l-2.463 105.224c8.317-5.88 15.272-5.232 19.087-2.564 2.378 1.662 3.502 4.077 2.862 6.152-.326 1.061-.457 1.853-.553 2.431-.368 2.225-.853 2.25-4.629 2.446-.554.029-1.19.061-1.92.105-2.39 1.901-31.238 24.627-52.452 31.038-25.496 7.705-51.815 9.918-70.469 5.932-.904.492-4.528 2.412-7.871 3.447-.561.173-1.167.244-1.795.236zm-7.795-4.061c1.123.681 6.168 3.577 9.221 2.632 3.647-1.128 7.798-3.435 7.839-3.458.133-.074.288-.099.438-.065 18.468 4.009 44.664 1.82 70.071-5.858 21.801-6.588 51.885-30.697 52.186-30.94.101-.081.225-.13.354-.138.818-.049 1.522-.085 2.128-.117 1.682-.087 2.696-.14 3.09-.327.185-.089.231-.219.372-1.076.102-.613.241-1.453.593-2.595.469-1.522-.49-3.436-2.386-4.761-3.6-2.518-10.373-2.988-18.583 3.245-.009.007-.039.029-.04.031-.191.142-.462.174-.674.064-.212-.109-.358-.319-.352-.558l2.479-105.863-9.125-.113.344 111.179c.001.214-.108.414-.29.529-14.249 9.039-34.835 18.72-48.949 23.02-12.018 3.661-23.257 4.731-38.789 3.697-.334-.022-.59-.304-.583-.638l2.813-120.113-9.909-.123.37 119.597c.001.177-.074.345-.203.463-.13.118-.303.178-.48.161-.994-.094-2-.191-3.024-.294-10.741-1.076-15.109.635-16.88 2.258-1.117 1.024-1.118 1.959-1.118 1.999.002.118-.03.246-.093.347-1.581 2.553-1.003 6.74-.82 7.815z" fill="#202f4b"/><path d="m310 277.409-1.424 115.137-43.851 10.648c-17.522-2.952-35.041-5.902-52.563-8.853.62-35.638 1.241-71.279 1.858-106.92 2.752-.326 6.631-1.173 10.476-3.614 5.396-3.427 7.317-7.831 10.025-11.884 1.778-2.661 10.154-15.198 23.314-17.979 10.228-2.161 21.265 2.01 27.681 7.536.099.085.183.157.47.412 6.998 6.219 8.423 13.239 15.636 14.553 0 0 .094.015 8.378.964z" fill="#fff"/><path d="m264.717 403.819c-.032-.001-.065-.004-.096-.009l-52.563-8.853c-.305-.051-.526-.317-.521-.626l.126-7.173c.578-33.247 1.156-66.498 1.732-99.747.006-.313.241-.573.551-.61 3.809-.451 7.246-1.635 10.215-3.521 4.21-2.672 6.281-6.018 8.284-9.252.499-.807 1.016-1.641 1.557-2.451 6.64-9.938 15.058-16.417 23.704-18.244 10.71-2.261 21.889 2.224 28.217 7.674.105.09.192.166.477.419 2.71 2.407 4.605 4.942 6.278 7.179 2.697 3.607 4.828 6.456 9.056 7.226.007 0 .551.067 8.337.959.318.036.558.307.554.628l-1.424 115.137c-.003.285-.2.531-.477.599l-43.852 10.647c-.051.013-.103.018-.155.018zm-51.922-10.004 51.907 8.743 43.256-10.504 1.411-114.088c-3.128-.359-7.76-.89-7.85-.905-4.72-.859-7.093-4.034-9.841-7.709-1.637-2.188-3.492-4.67-6.107-6.993-.276-.246-.361-.319-.457-.401-6.101-5.254-16.858-9.578-27.15-7.403-8.326 1.759-16.466 8.051-22.924 17.716-.529.792-1.04 1.616-1.534 2.414-2.077 3.354-4.225 6.823-8.676 9.649-2.986 1.897-6.414 3.12-10.196 3.638-.572 33.069-1.148 66.14-1.723 99.207z" fill="#202f4b"/><path d="m313.847 271.769 207.315 11.063-2.78 97.553-205.541-27.254z" fill="#fff"/><g fill="#202f4b"><path d="m518.374 381.009c-.025 0-.049-.002-.074-.006l-205.541-27.252c-.313-.042-.546-.311-.542-.627l1.006-81.362c.002-.17.074-.332.198-.448s.292-.181.46-.168l207.314 11.063c.339.018.601.302.591.641l-2.78 97.553c-.005.176-.085.343-.219.457-.116.099-.262.151-.413.149zm-204.901-28.423 204.305 27.089 2.743-96.252-206.057-10.996z"/><path d="m205.809 378.723c13.56-7.52 33.343-16.5 58.505-21.626 18.847-3.84 35.495-4.454 48.528-3.965 24.875 1.605 50.798 3.917 77.666 7.099 41.705 4.939 80.84 11.399 117.189 18.737-27.315 11.108-54.63 22.217-81.945 33.325z"/><path d="m425.743 413.008c-.033 0-.066-.003-.099-.008l-219.943-33.569c-.303-.047-.542-.28-.596-.581-.053-.301.09-.604.357-.752 18.426-10.218 38.178-17.519 58.709-21.702 15.969-3.254 32.353-4.593 48.698-3.979 25.867 1.669 52.011 4.059 77.724 7.104 39.137 4.634 78.584 10.941 117.245 18.745.31.063.542.321.571.635s-.15.61-.443.729l-81.945 33.325c-.089.036-.183.054-.278.053zm-217.738-34.672 217.66 33.22 79.561-32.356c-37.878-7.581-76.488-13.721-114.801-18.259-25.688-3.042-51.806-5.429-77.629-7.095-16.212-.611-32.481.72-48.339 3.951-19.702 4.014-38.684 10.921-56.452 20.539z"/></g><path d="m427.53 293.952c3.311-.631 8.026-2.024 12.345-5.514 4.568-3.692 6.217-7.728 8.005-10.919 5.569-9.941 17.988-21.518 30.17-21.348 10.154.142 18.445 8.422 19.712 9.688 6.816 6.807 8.195 14.498 15.228 15.927 0 0 .094.019 8.172 1.046l-1.56 126.214-94.445 25.905c.791-46.999 1.582-93.999 2.373-140.999z" fill="#fff"/><path d="m425.149 435.575c-.134-.001-.266-.046-.375-.13-.155-.121-.244-.308-.241-.504l2.372-141c.005-.296.218-.548.508-.603 4.693-.893 8.753-2.706 12.07-5.386 3.741-3.023 5.467-6.275 6.99-9.143.292-.55.576-1.083.863-1.595 5.949-10.62 18.723-21.815 30.692-21.668.011.001.02.001.03.001 9.394.131 17.218 6.945 20.145 9.869 2.636 2.634 4.48 5.407 6.106 7.854 2.625 3.951 4.699 7.07 8.806 7.905.007 0 .557.076 8.126 1.038.314.04.549.31.545.627l-1.56 126.214c-.004.279-.191.521-.459.595l-94.445 25.904c-.057.016-.115.023-.173.022zm2.997-141.109-2.351 139.663 93.188-25.56 1.548-125.188c-5.014-.637-7.591-.968-7.666-.983-4.611-.937-6.921-4.413-9.596-8.437-1.594-2.398-3.4-5.116-5.948-7.661-2.82-2.816-10.343-9.381-19.28-9.505-.009 0-.019 0-.029 0-11.487-.142-23.814 10.723-29.588 21.029-.282.504-.56 1.029-.848 1.571-1.579 2.974-3.369 6.344-7.309 9.528-3.359 2.715-7.435 4.578-12.121 5.543z" fill="#202f4b"/><path d="m427.306 312.097.224-18.145-220.472-16.262.084 15.61 9.786.835-1.066 86.202-10.054-1.536.07 19.756 219.279 36.394.517-22.568-9.978-1.524 1.232-99.648zm-165.724-14.15 11.007.94-1.112 89.944-10.998-1.68zm-8.644 88.052-10.996-1.679 1.087-87.956 11.006.939zm27.198-86.467 11.006.94-1.127 91.19-10.998-1.679zm18.553 1.584 11.006.94-1.143 92.438-10.996-1.68zm18.554 1.584 11.635.993-1.159 93.728-11.626-1.775zm19.182 1.637 12.264 1.047-1.175 95.061-12.254-1.871zm19.811 1.692 11.635.993-1.191 96.35-11.625-1.776zm19.183 1.638 13.207 1.127-1.208 97.746-13.197-2.016zm-150.944-12.887 11.007.939-1.081 87.449-10.998-1.68zm183.68 114.927-13.196-2.016 1.215-98.252 13.207 1.127z" fill="#fff"/><path d="m425.149 435.576c-.031-.001-.063-.003-.094-.008l-219.278-36.395c-.301-.05-.521-.31-.522-.614l-.071-19.756c-.001-.182.078-.356.216-.475s.322-.171.502-.145l9.345 1.428 1.05-84.903-9.208-.787c-.321-.027-.569-.295-.571-.618l-.084-15.61c-.001-.174.071-.341.198-.46.127-.118.294-.18.472-.166l220.472 16.262c.328.025.582.301.578.63l-.224 18.145c-.002.174-.076.338-.205.455-.129.116-.299.175-.472.159l-9.709-.829-1.217 98.435 9.441 1.441c.31.048.537.318.53.632l-.517 22.569c-.004.181-.087.351-.226.466-.115.095-.259.146-.406.144zm-218.648-37.548 218.048 36.19.488-21.301-9.435-1.441c-.308-.047-.534-.314-.53-.625l1.232-99.648c.002-.174.076-.339.205-.455.128-.117.299-.175.472-.159l9.708.829.209-16.887-219.212-16.169.077 14.364 9.218.787c.326.028.576.303.572.63l-1.066 86.201c-.002.181-.083.352-.221.469s-.319.167-.498.141l-9.333-1.426zm201.647 12.303c-.029 0-.058-.002-.087-.007l-13.197-2.016c-.307-.047-.533-.313-.53-.624l1.215-98.253c.002-.174.076-.339.205-.455.129-.117.3-.174.473-.16l13.207 1.129c.326.027.575.302.571.629l-1.225 99.141c-.003.18-.083.351-.221.468-.116.098-.261.15-.411.148zm-12.558-3.175 11.95 1.826 1.209-97.843-11.959-1.022zm-8.18.008c-.029-.001-.058-.003-.087-.007l-13.196-2.016c-.308-.047-.534-.314-.53-.625l1.197-96.857c.002-.174.077-.339.206-.455.128-.117.3-.175.472-.16l13.207 1.129c.326.027.576.302.571.629l-1.208 97.745c-.002.181-.083.352-.221.469-.115.097-.261.15-.411.148zm-12.558-3.175 11.95 1.825 1.193-96.447-11.96-1.022zm-8.179.007c-.029 0-.058-.002-.087-.007l-11.625-1.776c-.308-.047-.534-.313-.53-.624l1.181-95.568c.003-.174.077-.338.205-.455.129-.116.299-.175.472-.159l11.636.993c.325.028.575.303.571.63l-1.192 96.35c-.002.18-.082.351-.22.468-.115.098-.262.15-.411.148zm-10.987-2.935 10.379 1.586 1.175-95.052-10.387-.887zm-8.18.008c-.029 0-.057-.003-.086-.007l-12.254-1.872c-.308-.047-.534-.314-.53-.625l1.165-94.235c.002-.174.076-.339.205-.455.129-.117.301-.174.472-.159l12.264 1.046c.326.028.576.303.572.63l-1.176 95.06c-.002.181-.082.352-.22.469-.116.097-.263.15-.412.148zm-11.615-3.031 11.008 1.681 1.159-93.762-11.017-.94zm-8.18.008c-.029-.001-.057-.003-.086-.008l-11.626-1.775c-.307-.048-.533-.314-.53-.625l1.15-92.946c.002-.174.076-.338.204-.454.129-.117.3-.176.473-.16l11.635.993c.326.028.575.303.571.63l-1.159 93.728c-.002.18-.082.351-.22.468-.116.098-.263.151-.412.149zm-10.987-2.936 10.38 1.586 1.143-92.43-10.389-.888zm-8.179.008c-.029 0-.058-.003-.087-.007l-10.997-1.68c-.308-.047-.533-.314-.529-.625l1.133-91.698c.003-.174.076-.339.205-.455.128-.117.299-.174.472-.159l11.007.94c.326.027.575.302.571.629l-1.143 92.438c-.002.181-.083.352-.221.469-.115.097-.262.15-.411.148zm-10.359-2.839 9.751 1.489 1.127-91.14-9.759-.833zm-8.179.008c-.029-.001-.058-.003-.087-.008l-10.997-1.679c-.308-.048-.534-.314-.53-.625l1.119-90.451c.002-.173.076-.339.204-.455.129-.116.302-.174.473-.159l11.006.94c.326.028.575.302.571.629l-1.127 91.191c-.003.18-.082.351-.22.468-.116.098-.262.151-.412.149zm-10.358-2.84 9.75 1.49 1.112-89.893-9.759-.833zm-8.18.008c-.029 0-.057-.003-.086-.007l-10.998-1.68c-.307-.047-.534-.314-.53-.625l1.103-89.203c.002-.174.077-.339.205-.455.129-.117.301-.174.472-.159l11.007.939c.326.028.575.303.571.63l-1.112 89.944c-.002.18-.083.351-.221.468-.115.097-.261.15-.411.148zm-10.359-2.839 9.751 1.49 1.096-88.646-9.759-.833zm-8.179.008c-.029 0-.058-.003-.087-.008l-10.997-1.679c-.308-.048-.534-.313-.53-.625l1.088-87.956c.002-.174.076-.338.204-.455.129-.117.301-.174.473-.159l11.007.939c.326.028.575.303.571.63l-1.097 88.696c-.002.181-.083.351-.221.468-.115.098-.262.151-.411.149zm-10.359-2.84 9.751 1.49 1.081-87.398-9.759-.833zm-8.179.009c-.029-.001-.058-.004-.087-.008l-10.997-1.679c-.308-.048-.534-.314-.53-.625l1.072-86.709c.002-.174.077-.339.205-.455.129-.117.3-.176.472-.159l11.007.939c.326.028.575.303.571.63l-1.081 87.449c-.003.18-.083.351-.221.468-.116.098-.261.15-.411.149zm-10.358-2.84 9.75 1.49 1.066-86.151-9.759-.834z" fill="#202f4b"/><path d="m434.123 302.583c2.953-.556 7.157-1.784 11.008-4.864 4.072-3.257 5.542-6.818 7.136-9.635 4.965-8.771 16.038-18.986 26.9-18.835 9.055.126 16.449 7.435 17.578 8.551 6.079 6.008 7.309 12.796 13.581 14.058 0 0 .083.017 7.287.924l-1.378 111.378-84.211 22.85c.7-41.476 1.399-82.951 2.099-124.427z" fill="#fff"/><path d="m432.016 427.633c-.135-.001-.267-.047-.376-.132-.154-.12-.244-.306-.241-.502l2.101-124.427c.004-.296.217-.548.508-.603 4.173-.786 7.785-2.38 10.733-4.738 3.325-2.659 4.859-5.52 6.214-8.045.26-.486.513-.958.769-1.41 5.313-9.387 16.728-19.284 27.425-19.152.009 0 .018 0 .027.001 8.399.117 15.391 6.144 18.008 8.731 2.356 2.329 4.003 4.779 5.455 6.942 2.333 3.473 4.175 6.217 7.81 6.948.007 0 .526.07 7.242.916.315.039.55.309.546.627l-1.377 111.379c-.003.278-.192.521-.461.594l-84.212 22.85c-.057.015-.114.022-.171.021zm2.723-124.535-2.078 123.091 82.956-22.508 1.365-110.35c-6.677-.841-6.753-.856-6.778-.861-4.139-.833-6.207-3.911-8.602-7.476-1.419-2.114-3.029-4.51-5.295-6.75-2.51-2.48-9.204-8.26-17.149-8.371-.008 0-.017 0-.025 0-10.218-.126-21.185 9.442-26.322 18.518-.251.444-.5.907-.756 1.385-1.411 2.631-3.01 5.612-6.534 8.43-2.991 2.393-6.617 4.037-10.782 4.892z" fill="#202f4b"/></g><g mask="url(#e)"><path d="m170.46 562.475c-6.639 8.078-10.834 14.71-11.999 17.791-.474 1.253-1.49 3.939-.369 6.367 0 0 .152.314.345.631 1.322 2.181 5.525 6.638 25.316 14.288 6.777 2.62 11.577 4.144 11.497 6.275-.02.516-.352 1.757-4.336 3.274-9.221 3.51-15.291-.152-28.645-.597-3.16-.105-1.284.151-17.903.597-9.917.266-14.881.085-17.307-2.984-3.163-4.003-.937-10.882-.597-11.936 1.491-4.606 3.766-7.542 4.774-8.951 1.067-1.491 2.339-4.143 4.882-9.447 1.835-3.827 4.143-9.556 5.793-17.377 9.517.689 19.032 1.379 28.549 2.069z" fill="#fff"/><path d="m182.735 613.229c-2.718 0-5.434-.406-8.47-.86-3.394-.507-7.24-1.083-12.017-1.242-1.351-.045-1.735-.024-3.161.054-1.863.102-5.331.292-14.705.543-10.163.273-15.233.044-17.813-3.22-3.041-3.849-1.503-10.035-.7-12.515 1.409-4.356 3.494-7.236 4.614-8.784l.246-.339c1.036-1.447 2.302-4.089 4.827-9.353 2.497-5.207 4.429-11.007 5.744-17.237.065-.305.346-.513.656-.493l28.549 2.068c.232.017.437.163.528.377.092.214.057.462-.091.642-6.699 8.152-10.803 14.721-11.898 17.616-.453 1.199-1.397 3.693-.386 5.884 0 0 .141.288.313.571 2.292 3.78 10.706 8.5 25.007 14.029.83.321 1.63.625 2.395.916 5.979 2.274 9.588 3.646 9.5 5.964-.052 1.386-1.601 2.64-4.737 3.833-3.012 1.147-5.707 1.546-8.401 1.546zm-21.635-3.373c.335 0 .704.007 1.19.024 4.848.161 8.732.741 12.159 1.254 6.094.912 10.498 1.57 16.243-.617 3.607-1.373 3.923-2.424 3.933-2.714.054-1.422-4.001-2.964-8.696-4.75-.767-.292-1.569-.598-2.401-.919-14.77-5.71-23.152-10.468-25.625-14.547-.205-.338-.366-.668-.373-.682-1.236-2.677-.127-5.609.347-6.861 1.011-2.673 4.58-8.69 11.34-17.034l-26.81-1.943c-1.331 6.125-3.257 11.838-5.726 16.986-2.555 5.329-3.838 8.004-4.937 9.54l-.249.345c-1.08 1.491-3.09 4.268-4.439 8.435-.74 2.29-2.174 7.981.493 11.356 2.23 2.822 7.06 3.009 16.8 2.747 9.356-.251 12.813-.44 14.669-.541.938-.051 1.447-.079 2.082-.079z" fill="#202f4b"/><path d="m183.753 599.165s-6.565 8.355-7.161 16.71l-13.726-1.194s3.58-15.516 10.145-22.08c6.564-6.565 15.516 4.774 10.742 6.564z" fill="#202f4b"/><path d="m176.871 616.203-14.379-1.25.079-.341c.147-.636 3.675-15.675 10.226-22.226 2.134-2.134 4.791-2.675 7.482-1.525 2.828 1.209 5.174 4.149 5.123 6.42-.023 1.003-.54 1.759-1.461 2.135-.603.791-6.491 8.697-7.047 16.48zm-13.628-1.794 13.071 1.137c.732-8.249 7.135-16.485 7.201-16.568l.052-.067.079-.03c.745-.279 1.131-.823 1.149-1.614.041-1.788-1.902-4.629-4.754-5.849-2.448-1.047-4.869-.55-6.816 1.396-5.893 5.894-9.411 19.291-9.982 21.595z" fill="#202f4b"/><path d="m197.478 608.117h-72.818v7.938h72.818z" fill="#202f4b"/><path d="m197.869 616.446h-73.599v-8.72h73.599zm-72.818-.781h72.037v-7.157h-72.037z" fill="#202f4b"/><path d="m188.625 315.798c-3.415 37.366-6.831 74.732-10.245 112.098-18.192 44.496-36.385 88.992-54.577 133.488 6.372 2.855 15.988 6.29 28.114 7.527 10.852 1.106 20.01.073 26.483-1.167 19.426-42.01 38.853-84.02 58.279-126.03 1.766-39.44 3.532-78.879 5.298-118.318.699-13.595-8.12-25.573-20.194-28.606-13.909-3.494-29.332 5.587-33.158 21.008z" fill="#202f4b"/><path d="m154.374 512.81-1.702-.742 25.403-58.268 1.702.742z" fill="#fff"/><path d="m148.559 528.054-1.742-.647 2.919-7.852 1.741.647z" fill="#fff"/><path d="m244.708 557.986c.228 4.52.701 11.119 1.791 19.098.746 5.47 1.134 8.231 1.79 9.548.938 1.882 3.72 6.437 25.661 14.919 6.778 2.62 11.578 4.144 11.497 6.276-.02.515-.352 1.756-4.336 3.273-9.221 3.51-15.29-.152-28.645-.597-3.159-.105-1.284.151-17.903.597-9.917.266-14.881.086-17.306-2.984-3.163-4.003-.938-10.882-.597-11.935 1.249-3.862 3-4.432 4.774-8.952.685-1.747 1.415-4.188 1.79-9.548.577-8.24-.179-16.266-1.193-22.678 7.558.994 15.118 1.989 22.677 2.983z" fill="#fff"/><path d="m272.932 613.229c-2.718 0-5.433-.406-8.469-.86-3.394-.508-7.24-1.083-12.017-1.242-1.352-.045-1.735-.024-3.161.054-1.863.102-5.332.292-14.705.543-10.163.272-15.233.044-17.813-3.22-3.042-3.85-1.504-10.035-.701-12.515.661-2.043 1.458-3.206 2.302-4.438.804-1.174 1.636-2.386 2.485-4.55.658-1.676 1.38-4.099 1.749-9.364.484-6.911.085-14.493-1.187-22.536-.031-.195.031-.392.169-.533s.332-.208.528-.184l22.678 2.984c.298.04.527.287.542.588.316 6.278.918 12.685 1.785 19.044.69 5.053 1.106 8.103 1.731 9.354.736 1.478 2.98 5.976 25.327 14.616.831.321 1.631.625 2.397.916 5.979 2.274 9.587 3.647 9.499 5.964-.053 1.386-1.602 2.64-4.737 3.834-3.012 1.146-5.708 1.545-8.402 1.545zm-21.635-3.373c.335 0 .704.007 1.19.023 4.849.162 8.733.743 12.16 1.256 6.094.911 10.497 1.569 16.243-.618 3.606-1.373 3.922-2.424 3.933-2.714.054-1.421-4-2.964-8.695-4.75-.767-.292-1.57-.597-2.402-.919-22.799-8.813-25.121-13.47-25.995-15.223-.687-1.378-1.064-3.982-1.851-9.742-.848-6.219-1.443-12.483-1.768-18.631l-21.337-2.808c1.186 7.831 1.546 15.226 1.072 21.994-.381 5.434-1.14 7.97-1.832 9.733-.9 2.296-1.813 3.625-2.617 4.799-.826 1.205-1.539 2.246-2.144 4.117-.741 2.29-2.176 7.979.493 11.356 2.23 2.822 7.06 3.009 16.8 2.747 9.356-.251 12.813-.44 14.669-.541.938-.051 1.447-.079 2.081-.079z" fill="#202f4b"/><path d="m273.95 599.165s-6.564 8.355-7.161 16.71l-13.726-1.194s3.581-15.516 10.145-22.08c6.565-6.565 15.516 4.774 10.742 6.564z" fill="#202f4b"/><path d="m267.069 616.203-14.379-1.25.078-.341c.147-.636 3.675-15.675 10.226-22.226 2.134-2.134 4.792-2.675 7.482-1.525 2.828 1.209 5.175 4.149 5.123 6.42-.023 1.003-.54 1.759-1.46 2.135-.604.791-6.492 8.697-7.048 16.48zm-13.628-1.794 13.07 1.137c.732-8.249 7.136-16.485 7.201-16.568l.052-.067.08-.03c.745-.279 1.131-.823 1.149-1.614.041-1.788-1.903-4.629-4.755-5.849-2.447-1.047-4.868-.551-6.816 1.396-5.893 5.894-9.41 19.291-9.981 21.595z" fill="#202f4b"/><path d="m287.676 608.116h-72.818v7.939h72.818z" fill="#202f4b"/><path d="m288.066 616.446h-73.599v-8.72h73.599zm-72.818-.782h72.037v-7.157h-72.037z" fill="#202f4b"/><path d="m169.221 264.9c24.83-2.008 49.66-4.016 74.49-6.023l28.117 175.913c-3.424 46.332-6.848 92.663-10.272 138.995-4.035 2.348-13.904 7.36-27.324 6.967-14.91-.438-25.247-7.286-28.938-10.001 3.695-44.814 7.391-89.628 11.088-134.442l-27.041-108.883c-3.88-3.32-25.426-22.358-23.465-48.467.296-3.935 1.179-8.733 3.345-14.059z" fill="#202f4b"/><path d="m235.618 581.489c-.465-.001-.934-.008-1.407-.022-14.096-.413-24.433-6.53-29.341-10.14l-.321-.237 11.11-134.723-26.957-108.547c-6.231-5.373-25.405-24.068-23.539-48.914.362-4.823 1.505-9.626 3.396-14.275l.165-.408 75.588-6.112.105.653 28.13 175.996-.006.083-10.299 139.371-.326.189c-5.652 3.289-14.724 7.114-26.298 7.086zm-29.578-11.079c4.894 3.534 14.806 9.234 28.213 9.627 11.692.346 20.875-3.398 26.619-6.682l10.237-138.534-28-175.178-73.389 5.935c-1.738 4.383-2.79 8.9-3.131 13.436-1.833 24.411 17.307 42.811 23.217 47.869l.174.149.055.222 27.068 108.997-.009.117z" fill="#fff"/><path d="m257.563 398.753c-2.428-11.051-12.988-59.539-13.094-60.028l1.815-.395c.107.488 10.666 48.976 13.093 60.024z" fill="#fff"/><path d="m255.311 551.879-1.854-.116 4.277-68.223 1.854.116z" fill="#fff"/><path d="m253.191 567.765-1.858-.004.025-10.344 1.858.005z" fill="#fff"/><path d="m227.24 54.9046s10.751-13.5097-5.063-21.9514c-15.813-8.4412-27.988-8.3264-40.58 7.2312-12.592 15.5577-11.566 16.9816-18.964 21.2275-7.398 4.246-8.812 7.7885-8.631 19.5553s-4.139 20.2858-10.026 28.1308-10.586 41.874 9.349 43.022c19.935 1.147 9.086-24.931 18.364-35.578 9.277-10.648 55.551-61.6374 55.551-61.6374z" fill="#202f4b"/><path d="m151.487 153.092c-5.006-.814-8.842-3.84-11.161-8.833-3.176-6.838-2.771-15.459-2.247-19.99.769-6.649 2.718-12.878 4.964-15.871 4.95-6.596 9.984-15.0106 9.793-27.4125-.179-11.5617 1.069-15.9095 9.217-20.5857 4.749-2.7253 5.82-4.1663 9.806-9.5278 1.969-2.6483 4.666-6.2762 8.831-11.4222 12.03-14.8626 24.209-17.043 42.037-7.526 5.38 2.8716 8.272 6.2589 8.598 10.07.449 5.2468-2.452 13.0841-3.257 13.7436-2.114 2.5988-46.497 51.2406-55.499 61.5716-3.395 3.897-3.916 10.279-4.42 16.45-.815 9.974-1.656 20.288-14.891 19.526-.605-.035-1.196-.099-1.771-.193zm56.262-124.2404c-9.649-1.5699-17.362 2.3285-25.245 12.0674-4.135 5.1086-6.815 8.714-8.771 11.346-4.109 5.5247-5.349 7.1922-10.519 10.1595-6.868 3.9421-8.222 7.0582-8.044 18.5249.202 13.106-5.073 21.9386-10.26 28.8506-3.712 4.945-7.383 22.889-2.467 33.476 2.232 4.805 5.918 7.391 10.949 7.678 10.429.601 11.518-6.215 12.43-17.385.534-6.548 1.087-13.318 4.987-17.794 9.159-10.51 55.08-61.0591 55.526-61.6066l.083-.1034.104-.0802c.046-.036 2.856-7.4476 2.476-11.802-.259-2.9685-2.738-5.7269-7.37-8.1992-5.108-2.7268-9.678-4.4484-13.879-5.132z" fill="#202f4b"/><path d="m148.669 113.151c-.196-5.41 2.542-8.832 5.441-12.455 1.805-2.2551 3.671-4.5882 4.949-7.5583 1.359-3.1586 1.539-6.5009 1.713-9.7335.245-4.5503.499-9.2551 4.199-13.0269 5.9-6.0119 9.282-11.2906 9.315-11.3434l1.234.7842c-.034.0539-3.491 5.4545-9.505 11.5836-3.314 3.377-3.542 7.6043-3.783 12.0806-.181 3.3603-.369 6.8359-1.831 10.2332-1.355 3.1515-3.284 5.5627-5.15 7.8945-2.843 3.552-5.297 6.62-5.121 11.488z" fill="#202f4b"/><path d="m147.651 146.695c-2.551-.627-4.179-1.974-4.838-4.003-2.14-6.591 6.934-17.591 7.976-18.823.95-1.123 1.704-1.948 2.311-2.611 2.402-2.624 2.835-3.098 6.281-12.108 2.877-7.52 4.682-8.46 7.389-9.3722 1.141-.3843 2.32-.7813 3.859-2.1171 4.635-4.0226 6.497-12.666 6.515-12.7525l1.431.3004c-.079.3737-1.978 9.2086-6.988 13.5561-1.757 1.5253-3.136 1.9893-4.351 2.3983-2.156.726-3.713 1.251-6.489 8.509-3.546 9.27-4.067 9.84-6.569 12.573-.598.653-1.342 1.466-2.273 2.568-3.338 3.95-9.244 12.676-7.701 17.427.498 1.537 1.74 2.53 3.796 3.036z" fill="#202f4b"/><path d="m179.054 53.8956-1.407-.3926c.044-.1593 1.143-3.9319 5.966-6.6522l.718 1.2732c-4.302 2.4257-5.267 5.7384-5.277 5.7716z" fill="#202f4b"/><path d="m170.107 85.6294-1.362-.5321c2.172-5.5586 3.67-6.753 3.833-6.8711l.855 1.1866-.427-.5935.442.5814c-.013.0108-1.347 1.1236-3.341 6.2287z" fill="#202f4b"/><path d="m154.107 139.793-1.186-.856c2.07-2.869 3.79-8.321 3.807-8.376l1.395.436c-.072.233-1.807 5.733-4.016 8.796z" fill="#202f4b"/><path d="m214.17 103.307c-9.047-4.9127-8.956 3.872-6.328 20.573 2.629 16.7 43.334 42.463 51.154 45.47 7.819 3.008 19.541-4.327 13.071-15.942s-48.849-45.188-57.897-50.101z" fill="#fff"/><path d="m149.058 140.918c1.213 37.207 2.426 74.414 3.638 111.622 5.57 5.44 18.975 17.012 39.677 21.252 30.924 6.333 55.006-8.433 60.254-11.827l-25.652-148.939c-2.502-3.623-11.724-16.0258-27.498-18.8145-7.266-1.2843-14.825-.3357-21.967 2.5322-17.835 7.1613-29.078 24.9653-28.452 44.1743z" fill="#fff"/><g fill="#202f4b"><path d="m195.142 275.053c-.966-.16-1.937-.339-2.917-.539-18.914-3.874-32.216-13.801-40.044-21.447-.136-.133-.215-.314-.221-.504l-3.639-111.622c-.64-19.643 10.98-37.68 28.914-44.8816 7.386-2.9663 15.133-3.8578 22.37-2.5743 15.186 2.6854 24.624 14.2669 27.976 19.1219.061.088.102.188.12.294l25.653 148.939c.05.291-.079.584-.327.744-8.318 5.38-30.222 17.052-57.885 12.469zm-41.719-22.835c7.714 7.479 20.705 17.084 39.098 20.851 28.053 5.751 50.533-5.879 59.296-11.461l-25.541-148.296c-3.326-4.777-12.424-15.8107-26.928-18.3752-6.99-1.2404-14.434-.3722-21.563 2.4906-17.362 6.9716-28.61 24.4406-27.99 43.4666z"/><path d="m176.236 269.112c-3.192-10.388-6.571-104.039-6.713-108.02l1.461-.052c.034.973 3.513 97.438 6.649 107.643z"/><path d="m171.18 122.656-1.442-.24c.279-1.682 7.248-12.11 8.642-14.183l1.213.816c-3.998 5.945-8.238 12.66-8.413 13.607z"/><path d="m190.11 259.504c-.92-.153-1.831-.313-2.739-.482-17.021-3.161-28.703-8.648-35.506-12.695l1.194-2.006c13.62 8.102 44.551 20.473 98.672 12.293l.349 2.308c-22.734 3.436-43.567 3.631-61.97.582z"/><path d="m189.712 228.399c-16-2.65-29.457-6.603-38.535-9.716l.757-2.209c18.521 6.352 55.467 16.239 94.814 11.083l.304 2.315c-20.506 2.687-40.355 1.341-57.34-1.473z"/><path d="m205.833 196.805c-22.739-3.767-42.009-9.762-55.887-14.97l.82-2.186c20.559 7.716 53.051 17.174 91.093 18.409l-.076 2.333c-12.671-.411-24.734-1.727-35.95-3.586z"/><path d="m196.544 160.455c-17.919-2.968-34.562-6.618-47.48-9.744l.549-2.269c21.988 5.321 54.801 12.164 86.255 14.542l-.176 2.329c-13.11-.992-26.449-2.754-39.148-4.858z"/><path d="m180.427 209.922c-.273-3.381-.615-15.966-.63-16.5l1.461-.04c.003.131.355 13.079.626 16.422z"/><path d="m181.61 218.199-1.502-6.121 1.419-.349 1.502 6.121z"/><path d="m222.377 249.871c-1.403-.233-3.345-.736-6.063-1.646-3.894-1.304-7.62-2.874-7.657-2.89l.569-1.346c2.574 1.087 5.093 2.038 7.336 2.789-.005-3.103 1.657-3.961 2.404-4.19 2.205-.674 4.991 1.098 6.933 4.409.732 1.248.468 1.985.118 2.385-.441.502-1.274.881-3.64.489zm-4.337-2.613c3.691 1.154 6.382 1.653 6.877 1.162-.009-.002.005-.2-.279-.683-1.748-2.98-3.961-4.144-5.244-3.751-.971.297-1.466 1.49-1.354 3.272z"/></g><path d="m223.76 68.4706c.145-3.0785.546-7.7107 1.767-13.3886-3.185 2.0251-9.135 5.1717-17.148 5.8319-4.131.3403-7.69-.0723-10.398-.6208-1.014-6.0024-5.4-9.6631-9.075-9.2478-3.84.4374-5.757 5.2053-5.865 5.4916-1.381 3.5744-.475 7.8204 2.359 11.1016l-12.117 35.2495c1.019 1.616 4.301 6.37 10.74 8.859 5.962 2.305 11.176 1.334 13.086.88 2.015-5.861 4.029-11.724 6.044-17.5853.876.4164 2.151.9145 3.755 1.1682 4.979.7884 9.285-1.7514 9.285-1.7514 3.422-2.0293 4.925-5.103 5.763-6.8702 2.782-5.8759 1.369-9.9089 1.804-19.1177z" fill="#f0f4f2"/><path d="m183.316 112.362c-5.906-2.414-9.253-6.673-10.737-9.031-.134-.213-.164-.476-.082-.714l11.963-34.8053c-2.788-3.4611-3.633-7.8548-2.196-11.5748.083-.219 2.13-5.5151 6.548-6.0182 3.809-.431 8.573 3.0217 9.883 9.3655 3.186.595 6.419.7641 9.616.5006 5.859-.483 11.658-2.4558 16.77-5.7056.283-.1802.646-.1721.922.0195.275.1916.409.5304.338.8583-.955 4.4413-1.544 8.9003-1.75 13.2535-.136 2.8765-.09 5.2429-.049 7.3319.09 4.5876.155 7.903-1.834 12.1027-.775 1.6348-2.388 5.0351-6.09 7.23-.188.1111-4.625 2.6833-9.839 1.8575-1.066-.1679-2.116-.4589-3.132-.866l-5.75 16.7314c-.093.27-.318.474-.595.54-2.596.616-7.811 1.316-13.579-.914-.137-.053-.272-.107-.407-.162zm-9.114-9.585c1.506 2.289 4.694 6.087 10.122 8.194 5.037 1.948 9.621 1.484 12.149.946l5.893-17.1453c.077-.2243.246-.4048.465-.4969.218-.092.466-.0873.68.0152 1.133.5378 2.318.907 3.528 1.0979 4.609.7294 8.692-1.623 8.733-1.6469 3.262-1.9338 4.673-4.9103 5.432-6.5092 1.821-3.8454 1.762-6.8332 1.674-11.3562-.042-2.1148-.089-4.5124.05-7.4443.181-3.834.653-7.7467 1.405-11.6583-4.924 2.8064-10.378 4.5172-15.885 4.9708-3.538.2913-7.115.0782-10.632-.6344-.337-.068-.598-.338-.655-.6774-.942-5.5655-4.98-8.9198-8.161-8.5591-3.419.3894-5.163 4.9122-5.18 4.9578-1.27 3.2855-.422 7.2165 2.21 10.264.193.2241.253.5352.157.8151z" fill="#202f4b"/><path d="m203.213 94.8704-2.364 6.8786c-4.028-5.4319-7.036-13.396-7.819-15.5918 1.479 3.8165 5.06 6.7852 10.183 8.7132z" fill="#202f4b"/><path d="m201.008 102.775-.547-.738c-4.074-5.4941-7.066-13.419-7.887-15.7174l.906-.3371c1.398 3.6063 4.817 6.5205 9.904 8.4355l.439.1651zm-5.776-12.3296c1.31 3.0761 3.202 7.017 5.464 10.2626l1.909-5.5548c-3.081-1.2123-5.568-2.8083-7.373-4.7078z" fill="#202f4b"/><path d="m215.237 77.8695.194-1.4489c.609.0794 1.754.0526 2.227-.3587.1-.087.214-.2245.217-.5218.019-1.9871-.678-13.6809-.685-13.7986l1.459-.0873c.029.4834.707 11.8618.688 13.8994-.006.6511-.256 1.2098-.723 1.6141-1.123.9724-3.149.7322-3.377.7018z" fill="#202f4b"/><path d="m209.015 94.469c-6.964-3.0366-16.654.9632-20.225 8.424-1.055 2.204-1.428 4.404-1.46 6.358-.077 4.664 2.658 8.415 2.966 8.853.549.778.949 1.181 1.428 2.165 1.095 2.246.643 3.483 1.083 5.307.818 3.388 4.139 6.413 7.446 6.833 1.026.13 1.809-.021 3.093-.268 2.994-.577 5.082-1.928 6.006-2.597.828-.599 1.965-1.552 3.067-2.966 2.258 1.985 4.516 3.969 6.773 5.954 3.086.525 6.251-.708 8.101-3.16 2.486-3.296 1.259-7.02 1.151-7.33-3.737-2.764-7.474-5.527-11.211-8.29 1.855-8.374-2.021-16.5806-8.218-19.283z" fill="#f0f4f2"/><path d="m198.809 132.838c-3.126-.981-5.936-3.868-6.714-7.089-.176-.727-.22-1.356-.263-1.965-.069-.975-.134-1.897-.766-3.193-.319-.654-.591-1.016-.936-1.476-.136-.18-.279-.37-.433-.589-.971-1.371-3.171-4.954-3.1-9.287.038-2.377.554-4.618 1.533-6.662 3.733-7.8007 13.829-11.984 21.178-8.7803 6.683 2.9145 10.385 11.3003 8.739 19.6463l10.833 8.009c.118.088.207.208.256.347.155.444 1.438 4.441-1.258 8.015-2.007 2.66-5.465 4.01-8.809 3.441-.134-.024-.258-.083-.36-.172l-6.203-5.453c-.812.944-1.725 1.785-2.724 2.508-1.296.939-3.441 2.173-6.297 2.723-1.313.253-2.182.421-3.324.276-.454-.058-.906-.159-1.352-.299zm8.783-38.1187c-6.541-2.0516-14.915 1.7536-18.14 8.4907-.887 1.853-1.354 3.889-1.389 6.053-.063 3.9 1.942 7.163 2.808 8.384.169.24.303.418.431.588.361.48.701.934 1.081 1.713.757 1.552.835 2.661.911 3.733.041.574.079 1.116.226 1.723.743 3.078 3.807 5.895 6.826 6.278.91.116 1.603-.018 2.862-.26 2.592-.5 4.539-1.62 5.715-2.472 1.094-.792 2.076-1.742 2.918-2.823.124-.159.309-.26.51-.279s.401.046.553.179l6.613 5.814c2.746.392 5.55-.736 7.19-2.911 1.99-2.638 1.338-5.633 1.108-6.441l-11.018-8.147c-.233-.173-.342-.465-.28-.748 1.705-7.698-1.72-15.8037-7.795-18.4528-.37-.1615-.747-.3016-1.13-.4219z" fill="#202f4b"/><path d="m212.314 126.323 3.604 2.705c.273-4.156-.861-9.256-1.197-10.646.523 2.456-.356 5.201-2.407 7.941z" fill="#202f4b"/><path d="m216.285 129.826-4.555-3.419.25-.335c2.012-2.689 2.819-5.319 2.332-7.603l.816-.185c.354 1.46 1.484 6.554 1.208 10.771zm-3.389-3.59 2.64 1.981c.053-2.138-.217-4.435-.527-6.301-.36 1.404-1.068 2.857-2.113 4.32z" fill="#202f4b"/><path d="m199.712 113.702c-.241-.076-.42-.296-.431-.563-.018-.448-.126-4.416 1.742-5.575.763-.474 1.687-.42 2.745.158 1.212.664 1.902 1.544 2.051 2.615.289 2.081-1.666 4.031-1.75 4.113-.242.238-.633.235-.871-.007-.239-.243-.235-.633.008-.871.015-.015 1.599-1.603 1.393-3.069-.094-.673-.56-1.228-1.422-1.7-.963-.528-1.37-.276-1.504-.193-.953.591-1.218 3.061-1.161 4.479.013.34-.251.626-.591.64-.073.003-.143-.007-.209-.027z" fill="#202f4b"/><path d="m217.156 105.067c19.248 25.485 30.433 47.939 36.921 63.305 2.047 4.848 9.375 22.732 7.199 43.632-.901 8.658-3.014 13.814-7.21 17.129-5.415 4.28-13.027 4.49-18.415 2.697-8.06-2.683-12.951-10.451-19.298-27.558-10.284-27.72-14.643-53.691-17.756-72.189 3.005-2.209 6.973-5.639 10.649-10.642 4.609-6.272 6.811-12.361 7.91-16.374z" fill="#202f4b"/><path d="m235.739 232.61c-.106-.033-.21-.067-.314-.102-7.983-2.657-12.965-9.719-19.742-27.987-10.29-27.735-14.616-53.446-17.774-72.22l-.016-.099c-.045-.267.064-.536.281-.696 4.022-2.955 7.554-6.484 10.496-10.489 3.571-4.858 6.194-10.288 7.797-16.139.072-.262.287-.461.554-.513.268-.051.542.054.706.272 15.371 20.351 27.823 41.702 37.009 63.457 6.208 14.704 8.716 29.914 7.251 43.985-.93 8.94-3.166 14.208-7.477 17.616-5.9 4.663-13.718 4.5-18.771 2.915zm-36.363-100.214c3.144 18.689 7.466 44.183 17.648 71.627 6.599 17.787 11.356 24.633 18.853 27.129 5.086 1.695 12.527 1.545 17.746-2.579 3.98-3.145 6.055-8.122 6.942-16.642 1.44-13.832-1.032-28.798-7.147-43.281-8.969-21.24-21.068-42.095-35.972-62.008-1.671 5.493-4.232 10.608-7.623 15.222-2.942 4.004-6.454 7.545-10.447 10.532z" fill="#202f4b"/><path d="m202.757 156.739c-.308-.096-.525-.389-.512-.727.298-7.805 1.462-15.581 3.46-23.115 1.7-6.408 4.018-12.691 6.891-18.675.176-.365.614-.52.979-.344.365.175.518.614.343.978-2.833 5.902-5.119 12.097-6.795 18.417-1.971 7.429-3.119 15.098-3.413 22.795-.016.405-.356.72-.761.704-.067-.002-.131-.013-.192-.033z" fill="#202f4b"/><path d="m242.865 206.064c-14.243-4.468-30.56-16.61-31.462-17.286-.324-.243-.389-.702-.147-1.026.243-.325.703-.391 1.027-.147.287.215 28.839 21.464 42.835 18.307 2.702-.609 4.621-2.058 5.867-4.431.189-.358.633-.497.99-.308.358.189.497.632.309.99-1.439 2.738-3.741 4.481-6.844 5.18-3.58.807-7.97.165-12.575-1.279z" fill="#202f4b"/><path d="m269.786 201.627c.221-3.775-3.12-6.776-6.851-6.166l-50.095-14.78c-5.168-5.808-8.671-10.937-10.825-14.356-7.739-12.284-9.765-21.067-19.741-34.311-3.583-4.758-6.407-7.721-10.652-8.584-4.778-.972-10.943.801-13.867 4.706-7.102 9.486 5.959 30.176 14.44 43.61 8.286 13.126 13.52 21.417 24.385 28.619 12.768 8.462 25.848 10.474 37.872 12.323 10.048 1.545 18.55 1.685 24.512 1.509l-.004.014s1.6.979 6.472 1.215c2.953.143 3.993-7.643 4.354-13.799z" fill="#fff"/><path d="m213.266 209.013c-5.68-1.781-11.436-4.283-17.093-8.033-10.997-7.289-16.409-15.862-24.601-28.84-8.686-13.76-21.813-34.553-14.408-44.445 2.947-3.936 9.226-6.08 14.604-4.986 4.389.893 7.284 3.803 11.095 8.862 5.934 7.878 9.142 14.323 12.244 20.556 2.155 4.331 4.383 8.809 7.531 13.806 3.079 4.887 6.649 9.631 10.612 14.102l49.737 14.674c1.946-.268 3.889.328 5.354 1.648 1.504 1.356 2.299 3.292 2.18 5.313-.58 9.891-2.256 14.632-5.125 14.493-4.193-.203-6.063-.941-6.635-1.223-8.15.228-16.366-.285-24.421-1.523-6.65-1.023-13.8-2.122-21.074-4.404zm-40.713-84.582c-.35-.11-.708-.202-1.078-.278-4.778-.971-10.545.972-13.13 4.425-6.798 9.08 6.003 29.357 14.473 42.775 8.379 13.273 13.436 21.283 24.169 28.398 12.632 8.373 25.314 10.322 37.576 12.208 8.043 1.237 16.244 1.742 24.378 1.502.178-.006.35.053.486.164.375.177 2.08.873 6.041 1.065 1.356.066 3.009-3.343 3.582-13.106.092-1.571-.527-3.077-1.697-4.132-1.173-1.058-2.739-1.517-4.299-1.262-.109.018-.221.011-.328-.021l-50.096-14.78c-.132-.033-.25-.114-.342-.217-4.072-4.577-7.74-9.44-10.898-14.453-3.187-5.06-5.432-9.571-7.603-13.934-3.214-6.458-6.25-12.558-12.102-20.327-3.254-4.32-5.769-6.972-9.132-8.027z" fill="#202f4b"/><path d="m273.249 155.924c-1.805-4.327-7.936-5.96-20.125-9.05-4.228-1.072-8.044-1.857-11.302-2.438-.041-.212-.082-.423-.122-.634-5.094-1.826-8.326-4.29-10.397-6.337-2.304-2.278-4.898-5.749-7.703-5.272-.325.055-.754.128-1.074.465-1.913 2.015 3.571 9.819 4.499 11.124-4.243-2.02-14.208-6.664-21.009-8.756-2.43-.747-5.544-1.531-6.369-.253-.195.302-.286.687-.243 1.167.249 2.799 16.024 9.038 16.024 9.038s-15.157-5.55-18.003-6.231c-2.845-.68-3.911 2.013-1.522 3.848 0 0-2.821 2.504 1.139 4.93l11.2 4.403c-3.376-1.286-9.925-3.506-11.311-1.808-.455.558-.457 1.155-.457 1.155-.004 1.389 1.93 2.431 2.854 2.908 12.514 6.468 18.701 7.842 18.701 7.842 9.031 2.005 13.546 3.008 18.137 1.39.038-.013.077-.028.115-.042l-.008.166c7.259 3.296 13.839 6 19.604 8.213 6.342 2.435 9.757 3.532 12.875-.184 2.828-3.37 6.733-10.284 4.497-15.644z" fill="#fff"/><path d="m263.774 174.712c-2.355-.042-5.025-1.067-8.161-2.271-6.515-2.502-13.103-5.261-19.581-8.202-4.655 1.506-9.247.486-18.163-1.494-.256-.057-6.424-1.468-18.879-7.906-.975-.505-3.259-1.685-3.253-3.566.001-.09.023-.882.623-1.618.209-.256.607-.745 1.891-.863l-1.478-.581c-.04-.015-.079-.035-.116-.057-1.521-.932-2.347-2.018-2.453-3.229-.084-.954.311-1.748.673-2.26-1.1-1.149-1.221-2.465-.798-3.353.552-1.157 1.933-1.66 3.518-1.281.792.19 2.491.739 4.545 1.438-1.979-1.247-3.384-2.47-3.473-3.463-.055-.628.065-1.177.359-1.632 1.074-1.663 4.097-1.008 7.205-.052 5.381 1.655 12.73 4.873 18.66 7.64-2.516-3.881-4.537-8.089-2.902-9.811.489-.515 1.112-.621 1.485-.685 2.7-.458 5.052 2.023 7.125 4.212.415.439.822.869 1.221 1.263 2.67 2.641 6.078 4.715 10.127 6.167.245.088.426.299.475.555l.026.137c3.631.66 7.28 1.453 10.855 2.359 12.02 3.048 18.641 4.726 20.624 9.481 2.399 5.751-1.77 13.017-4.612 16.403-1.673 1.994-3.488 2.705-5.543 2.669zm-26.86-11.692c6.364 2.882 12.831 5.588 19.227 8.044 6.626 2.544 9.383 3.206 12.046.031 2.628-3.131 6.507-9.79 4.381-14.887-1.631-3.91-7.195-5.468-19.625-8.619-3.705-.939-7.49-1.756-11.251-2.427-.3-.054-.536-.287-.594-.586l-.043-.225c-4.08-1.517-7.534-3.656-10.27-6.362-.409-.405-.828-.846-1.255-1.297-1.819-1.921-3.884-4.097-5.807-3.772-.252.043-.512.087-.662.246-.762.803.561 4.561 4.564 10.189.195.273.181.644-.035.901s-.578.335-.882.191c-5.067-2.412-14.522-6.751-20.909-8.715-4.278-1.316-5.303-.914-5.533-.558-.111.172-.154.408-.128.701.126 1.403 8.147 5.486 15.561 8.418.375.149.562.571.418.948-.143.378-.564.569-.943.43-.151-.056-15.148-5.543-17.92-6.206-.893-.214-1.6-.03-1.843.481-.233.488-.033 1.317.942 2.065.174.133.28.339.287.558.008.22-.083.431-.247.578-.005.004-.806.745-.72 1.658.083.871.958 1.595 1.701 2.058l11.138 4.38c.378.148.565.574.418.952s-.571.567-.95.423c-7.307-2.785-10.024-2.587-10.477-2.031-.274.335-.291.688-.291.703-.002.638.824 1.396 2.455 2.238 12.252 6.334 18.461 7.764 18.522 7.778 8.883 1.972 13.341 2.963 17.732 1.414l.068-.024c.232-.085.512-.054.711.093.086.063.159.142.214.231z" fill="#202f4b"/></g></g></svg>